<?xml version="1.0" encoding="utf-8"?>
<!-- Generator: Adobe Illustrator 27.5.0, SVG Export Plug-In . SVG Version: 6.00 Build 0)  -->
<svg version="1.1" xmlns="http://www.w3.org/2000/svg" xmlns:xlink="http://www.w3.org/1999/xlink" x="0px" y="0px"
	 viewBox="0 0 500 500" style="enable-background:new 0 0 500 500;" xml:space="preserve">
<g id="BACKGROUND">
	<rect style="fill:#FFFFFF;" width="500" height="500"/>
</g>
<g id="OBJECTS">
	<g id="shadow">
		<g>
			<defs>
				<path id="XMLID_23_" d="M453.471,305.819c0,112.374-92.695,110.791-205.069,110.791c-112.374,0-201.874,1.584-201.874-110.791
					S115.58,69.101,241.091,66.626C388.551,63.717,453.471,193.445,453.471,305.819z"/>
			</defs>
			<use xlink:href="#XMLID_23_"  style="overflow:visible;fill:#D6F1F2;"/>
			<clipPath id="XMLID_00000155860750642761504160000008793817533068793272_">
				<use xlink:href="#XMLID_23_"  style="overflow:visible;"/>
			</clipPath>
			<path style="opacity:0.2;clip-path:url(#XMLID_00000155860750642761504160000008793817533068793272_);fill:#FFFFFF;" d="
				M326.162,69.432c66.81,48.612,97.438,136.834,97.438,216.792c0,119.364-97.437,117.682-215.559,117.682
				c-56.981,0-108.362,0.387-146.291-12.607c36.826,34.041,104.424,33.319,182.553,33.319c118.122,0,215.559,1.682,215.559-117.682
				C459.862,213.71,418.236,109.244,326.162,69.432z"/>
		</g>
		<path style="fill:#F2F2F2;" d="M427.694,413.508c0,10.998-75.44,19.914-168.5,19.914s-168.5-8.916-168.5-19.914
			c0-10.998,67.837-11.925,160.897-11.925S427.694,402.51,427.694,413.508z"/>
	</g>
	<g id="elements">
		<g>
			
				<line style="fill:none;stroke:#FFFFFF;stroke-width:4;stroke-linecap:round;stroke-linejoin:round;stroke-miterlimit:10;" x1="72.266" y1="333.754" x2="212.266" y2="333.754"/>
			
				<line style="fill:none;stroke:#FFFFFF;stroke-width:4;stroke-linecap:round;stroke-linejoin:round;stroke-miterlimit:10;" x1="104.266" y1="352.686" x2="244.266" y2="352.686"/>
			
				<line style="fill:none;stroke:#FFFFFF;stroke-width:4;stroke-linecap:round;stroke-linejoin:round;stroke-miterlimit:10;" x1="90.128" y1="371.619" x2="230.128" y2="371.619"/>
		</g>
		<path style="fill:#E26464;" d="M219.053,227.643c-2.076,0.284-4.034-1.024-4.564-3.051c-2.044-7.812-5.278-25.986,8.356-27.534
			c13.427-1.525,16.489,15.771,17.187,23.766c0.191,2.191-1.385,4.143-3.565,4.44L219.053,227.643z"/>
		<path style="fill:#C14652;" d="M257.194,361.032h16l10.333-61.333c0.503-11.576-7.093-14.935-15.62-17.282
			c-5.634-1.551-28.02-6.651-33.476-8.745l-10.904-3.973c-16.621,3.855-26.833-6.167-26.833-6.167s-10.5,33.833,4.5,36.833
			c10.331,2.066,43.096,2.203,58.178,2.603c1.167,0.031,2.055,1.047,1.937,2.208L257.194,361.032z"/>
		<path style="fill:#C14652;" d="M273.084,357.708l-13.576-1.156c-1.644-0.14-2.875-1.6-2.735-3.244l0,0
			c0.14-1.644,1.6-2.875,3.244-2.735l13.577,1.156c1.644,0.14,2.875,1.6,2.735,3.244l0,0
			C276.187,356.618,274.728,357.848,273.084,357.708z"/>
		<path style="fill:#AF4151;" d="M273.36,359.365c0,0,13.583,1.417,17.083,6.417c2.365,3.378-0.5,7.5-4,8.25s-30.5-3-30.5-3l1.75-9"
			/>
		<g>
			<defs>
				<path id="XMLID_18_" d="M265.194,359.782c0,0,15.75,2,19.25,7c2.365,3.378-0.5,7.5-4,8.25s-30.5-3-30.5-3l2.083-11.333"/>
			</defs>
			<use xlink:href="#XMLID_18_"  style="overflow:visible;fill:#CC4A56;"/>
			<clipPath id="XMLID_00000006672117477613585080000007456396274527173035_">
				<use xlink:href="#XMLID_18_"  style="overflow:visible;"/>
			</clipPath>
			<path style="clip-path:url(#XMLID_00000006672117477613585080000007456396274527173035_);fill:#C14652;" d="M293.944,368.157
				c0,4.487-3.638,8.125-8.125,8.125c-4.487,0-11.375,0.487-11.375-4c0-4.487,6.888-12.25,11.375-12.25
				C290.306,360.032,293.944,363.669,293.944,368.157z"/>
			<path style="clip-path:url(#XMLID_00000006672117477613585080000007456396274527173035_);fill:#C14652;" d="M244.944,367.782l3-1
				c14.25,4.75,34.132,4.25,39.25,4.25l3.25,0.5l-6,6.75l-38.25-6.75L244.944,367.782z"/>
		</g>
		<g id="element_1_">
			<g>
				<defs>
					<path id="XMLID_17_" d="M217.331,204.044c-1.833,6.099,0.976,13.236,1.883,19.54l4.036,21.464
						c1.102,11.661,7.114,13.346,17.354,14.767l36.422,1.884l6.833-6.583l1.333-0.25c-44.928-6.61-47.247-7.988-47.334-16.045
						c-0.016-1.464,0.032-2.929,0.113-4.391l0.498-8.978c-0.319-4.065-4.552-7.677-4.443-11.753
						c0.165-6.181,0.332-15.304-7.73-18.571C221.478,193.175,219.367,197.274,217.331,204.044z"/>
				</defs>
				<use xlink:href="#XMLID_17_"  style="overflow:visible;fill:#E59F83;"/>
				<clipPath id="XMLID_00000170236801618166744800000011079965165409383813_">
					<use xlink:href="#XMLID_17_"  style="overflow:visible;"/>
				</clipPath>
				<path style="opacity:0.4;clip-path:url(#XMLID_00000170236801618166744800000011079965165409383813_);fill:#EAA286;" d="
					M282.25,262.221c-50.002-2.623-54.034-1.89-58.89-33.773c-1.466-9.625-2.024-24.944,2.937-33.321v0l-12.589,2.134l8.916,48.686
					c-0.699,11.466,7.312,15.667,14.773,14.297l44.945,3.211L282.25,262.221L282.25,262.221z"/>
			</g>
		</g>
		<g>
			<defs>
				<path id="XMLID_19_" d="M252.027,360.698l13.096,0.865c2.037,0,2.819-0.002,3.157-2.011l9.747-57.853
					c0.503-11.576-7.093-14.935-15.62-17.282c-5.634-1.551-28.02-6.651-33.476-8.745l-10.904-3.973
					c-16.621,3.855-26.833-6.167-26.833-6.167s-10.5,33.833,4.5,36.833c10.331,2.066,43.096,2.203,58.178,2.603
					c1.167,0.031,2.055,1.047,1.937,2.208L252.027,360.698z"/>
			</defs>
			<use xlink:href="#XMLID_19_"  style="overflow:visible;fill:#D84C53;"/>
			<clipPath id="XMLID_00000118358878911507337980000011741038654423858323_">
				<use xlink:href="#XMLID_19_"  style="overflow:visible;"/>
			</clipPath>
			<path style="clip-path:url(#XMLID_00000118358878911507337980000011741038654423858323_);fill:#F7AE8B;" d="M265.123,361.563
				l-15.429-1.531l1.333-5l17.667,0.333l0.368,0.888C270.177,358.943,268.02,361.85,265.123,361.563z"/>
		</g>
		
			<line style="fill:none;stroke:#752C34;stroke-width:2;stroke-linecap:round;stroke-linejoin:round;stroke-miterlimit:10;" x1="129.266" y1="314.254" x2="146.266" y2="340.254"/>
		
			<rect x="176.733" y="368.843" transform="matrix(0.5345 0.8452 -0.8452 0.5345 411.0558 28.416)" style="fill:#AEAFAE;" width="6" height="37"/>
		
			<rect x="176.733" y="368.842" transform="matrix(-0.4879 0.8729 -0.8729 -0.4879 605.5373 419.4373)" style="fill:#AEAFAE;" width="6" height="37.003"/>
		
			<rect x="176.733" y="368.841" transform="matrix(-0.9973 -0.073 0.073 -0.9973 330.7044 786.7767)" style="fill:#AEAFAE;" width="6" height="37.005"/>
		<g>
			<defs>
				<path id="XMLID_7_" d="M201.068,393.122c3.587-12.083-3.301-24.786-15.384-28.372c-12.083-3.587-24.786,3.301-28.372,15.384
					c-3.587,12.083,3.301,24.786,15.384,28.372C184.779,412.093,197.482,405.205,201.068,393.122z M174.74,401.614
					c-8.277-2.457-12.994-11.158-10.538-19.434c2.457-8.277,11.157-12.994,19.434-10.538c8.276,2.457,12.994,11.158,10.538,19.434
					C191.717,399.353,183.016,404.071,174.74,401.614z"/>
			</defs>
			<use xlink:href="#XMLID_7_"  style="overflow:visible;fill:#A4A6A5;"/>
			<clipPath id="XMLID_00000157271974420666907110000014739930303197659265_">
				<use xlink:href="#XMLID_7_"  style="overflow:visible;"/>
			</clipPath>
			<g style="clip-path:url(#XMLID_00000157271974420666907110000014739930303197659265_);">
				<path style="fill:#9A9B9A;" d="M201.575,394.264c1.246-4.197,1.225-8.468,0.165-12.407c0.359,2.998,0.129,6.117-0.785,9.196
					c-3.586,12.083-16.289,18.971-28.372,15.384c-7.886-2.341-13.557-8.565-15.549-15.966c1.05,8.768,7.165,16.504,16.169,19.177
					C185.286,413.235,197.989,406.347,201.575,394.264z"/>
			</g>
		</g>
		<g>
			<g>
				<defs>
					<path id="XMLID_6_" d="M210.169,395.823c5.078-17.109-4.675-35.096-21.784-40.174c-17.109-5.078-35.096,4.674-40.175,21.784
						c-5.078,17.109,4.675,35.096,21.784,40.174C187.104,422.685,205.091,412.932,210.169,395.823z M172.685,408.283
						c-11.799-3.502-18.525-15.906-15.023-27.705c3.502-11.799,15.906-18.525,27.705-15.023
						c11.799,3.502,18.525,15.906,15.023,27.705C196.888,405.059,184.484,411.785,172.685,408.283z"/>
				</defs>
				<use xlink:href="#XMLID_6_"  style="overflow:visible;fill:#7D7B7C;"/>
				<clipPath id="XMLID_00000181781086873074250580000015048878600263069627_">
					<use xlink:href="#XMLID_6_"  style="overflow:visible;"/>
				</clipPath>
				<g style="opacity:0.5;clip-path:url(#XMLID_00000181781086873074250580000015048878600263069627_);">
					<path style="fill:#686768;" d="M210.554,397.184c1.452-4.893,1.687-9.856,0.888-14.57c0.053,3.214-0.374,6.491-1.338,9.737
						c-5.078,17.109-23.065,26.862-40.174,21.784c-12.217-3.626-20.678-13.835-22.672-25.605
						c0.226,13.732,9.258,26.323,23.122,30.438C187.489,424.046,205.476,414.293,210.554,397.184z"/>
				</g>
			</g>
		</g>
		<path style="fill:#7D7B7C;" d="M185.664,388.181l5.618-18.163c0.862-2.134-0.169-4.562-2.303-5.424
			c-2.134-0.862-4.562,0.169-5.424,2.303l-8.571,16.971c-0.15,0.253-0.288,0.515-0.402,0.796c-1.206,2.987,0.237,6.387,3.224,7.593
			c2.987,1.206,6.387-0.237,7.593-3.224C185.514,388.752,185.597,388.467,185.664,388.181z"/>
		<g>
			<defs>
				<path id="XMLID_5_" d="M182.536,388.701c-1.118,1.345-3.115,1.528-4.46,0.41c-1.345-1.118-1.528-3.115-0.41-4.46
					c1.118-1.345,3.115-1.528,4.459-0.41C183.471,385.36,183.654,387.357,182.536,388.701z"/>
			</defs>
			<use xlink:href="#XMLID_5_"  style="overflow:visible;fill:#727172;"/>
			<clipPath id="XMLID_00000083767162417815724790000001620990159622238873_">
				<use xlink:href="#XMLID_5_"  style="overflow:visible;"/>
			</clipPath>
			<path style="opacity:0.3;clip-path:url(#XMLID_00000083767162417815724790000001620990159622238873_);fill:#5B5B5B;" d="
				M183.551,386.121c-0.128,0.499-0.354,0.98-0.706,1.402c-1.267,1.523-3.529,1.731-5.053,0.464
				c-0.818-0.681-1.243-1.649-1.278-2.635c-0.334,1.301,0.069,2.735,1.17,3.651c1.524,1.267,3.786,1.059,5.053-0.464
				C183.324,387.833,183.581,386.97,183.551,386.121z"/>
		</g>
		
			<rect x="348.076" y="364.335" transform="matrix(0.9514 0.3081 -0.3081 0.9514 135.0257 -89.5412)" style="fill:#AEAFAE;" width="6" height="37"/>
		
			<rect x="348.076" y="364.334" transform="matrix(0.183 0.9831 -0.9831 0.183 663.1796 -32.386)" style="fill:#AEAFAE;" width="6" height="37.003"/>
		
			<rect x="348.076" y="364.333" transform="matrix(-0.8135 0.5816 -0.5816 -0.8135 859.3227 490.0847)" style="fill:#AEAFAE;" width="6" height="37.005"/>
		<g>
			<defs>
				<path id="XMLID_2_" d="M371.174,373.635c-4.969-11.583-18.387-16.946-29.971-11.977s-16.945,18.387-11.977,29.97
					c4.969,11.583,18.387,16.945,29.971,11.977C370.781,398.637,376.143,385.219,371.174,373.635z M356.362,397
					c-7.934,3.403-17.125-0.27-20.529-8.204c-3.404-7.934,0.269-17.125,8.204-20.528c7.934-3.403,17.125,0.27,20.529,8.204
					C367.969,384.406,364.296,393.597,356.362,397z"/>
			</defs>
			<use xlink:href="#XMLID_2_"  style="overflow:visible;fill:#A4A6A5;"/>
			<clipPath id="XMLID_00000052825765322922302080000005184192663139415971_">
				<use xlink:href="#XMLID_2_"  style="overflow:visible;"/>
			</clipPath>
			<g style="clip-path:url(#XMLID_00000052825765322922302080000005184192663139415971_);">
				<path style="fill:#9A9B9A;" d="M372.295,374.19c-1.726-4.024-4.473-7.294-7.807-9.644c2.193,2.076,4.01,4.621,5.277,7.572
					c4.969,11.583-0.393,25.002-11.977,29.97c-7.56,3.243-15.9,2.083-22.164-2.333c6.414,6.07,16.062,8.107,24.694,4.404
					C371.901,399.191,377.263,385.773,372.295,374.19z"/>
			</g>
		</g>
		<g>
			<g>
				<defs>
					<path id="XMLID_1_" d="M379.899,369.893c-7.036-16.402-26.036-23.994-42.438-16.959c-16.402,7.036-23.995,26.036-16.959,42.438
						c7.036,16.402,26.036,23.994,42.438,16.958C379.342,405.294,386.934,386.294,379.899,369.893z M359.046,403.441
						c-11.311,4.852-24.414-0.384-29.266-11.695c-4.852-11.311,0.384-24.414,11.695-29.266c11.311-4.852,24.414,0.384,29.266,11.695
						C375.594,385.486,370.357,398.589,359.046,403.441z"/>
				</defs>
				<use xlink:href="#XMLID_1_"  style="overflow:visible;fill:#7D7B7C;"/>
				<clipPath id="XMLID_00000033329366095421086510000009937777349082722236_">
					<use xlink:href="#XMLID_1_"  style="overflow:visible;"/>
				</clipPath>
				<g style="opacity:0.5;clip-path:url(#XMLID_00000033329366095421086510000009937777349082722236_);">
					<path style="fill:#686768;" d="M381.065,370.693c-2.012-4.69-5.005-8.656-8.634-11.77c2.096,2.438,3.863,5.23,5.198,8.341
						c7.036,16.402-0.557,35.402-16.959,42.437c-11.712,5.024-24.745,2.586-33.804-5.189c8.954,10.413,23.949,14.319,37.24,8.617
						C380.508,406.094,388.101,387.095,381.065,370.693z"/>
				</g>
			</g>
		</g>
		<path style="fill:#7D7B7C;" d="M356.172,379.686l-7.294-17.557c-0.702-2.192-3.047-3.399-5.239-2.697
			c-2.192,0.702-3.399,3.047-2.697,5.239l4.262,18.528c0.046,0.29,0.108,0.58,0.2,0.869c0.983,3.068,4.266,4.759,7.335,3.776
			c3.068-0.982,4.759-4.266,3.776-7.335C356.421,380.221,356.302,379.949,356.172,379.686z"/>
		<g>
			<defs>
				<path id="XMLID_11_" d="M181.775,314.254h-64.019c-3.309,0-5.991-2.682-5.991-5.991v-49.019c0-3.309,2.682-5.991,5.991-5.991
					h64.019c3.309,0,5.991,2.682,5.991,5.991v49.019C187.766,311.571,185.084,314.254,181.775,314.254z"/>
			</defs>
			<use xlink:href="#XMLID_11_"  style="overflow:visible;fill:#FDC94F;"/>
			<clipPath id="XMLID_00000091736415693525014250000018061855213196596620_">
				<use xlink:href="#XMLID_11_"  style="overflow:visible;"/>
			</clipPath>
			
				<rect x="139.766" y="248.253" style="clip-path:url(#XMLID_00000091736415693525014250000018061855213196596620_);fill:#FCB932;" width="20" height="22.809"/>
			
				<rect x="106.194" y="281.532" style="clip-path:url(#XMLID_00000091736415693525014250000018061855213196596620_);fill:#FCB932;" width="91.5" height="3"/>
			
				<rect x="105.694" y="294.032" style="clip-path:url(#XMLID_00000091736415693525014250000018061855213196596620_);fill:#FCB932;" width="91.5" height="3"/>
			<path style="opacity:0.3;clip-path:url(#XMLID_00000091736415693525014250000018061855213196596620_);fill:#FCB932;" d="
				M178.766,246.253c0,0,6.5,62-86,57l-1.5,20.5l101,3l1-80L178.766,246.253z"/>
		</g>
		<g>
			<defs>
				<ellipse id="XMLID_12_" cx="314.715" cy="252.931" rx="11.616" ry="12.011"/>
			</defs>
			<use xlink:href="#XMLID_12_"  style="overflow:visible;fill:#FDC94F;"/>
			<clipPath id="XMLID_00000153696448787445715020000006254950786580314039_">
				<use xlink:href="#XMLID_12_"  style="overflow:visible;"/>
			</clipPath>
			<path style="opacity:0.3;clip-path:url(#XMLID_00000153696448787445715020000006254950786580314039_);fill:#FCFAF7;" d="
				M315.715,239.92c-4.169,0-7.814,2.278-9.863,5.688c2.07-1.973,4.826-3.188,7.863-3.188c6.415,0,11.616,5.378,11.616,12.011
				c0,2.323-0.648,4.485-1.753,6.323c2.302-2.195,3.753-5.33,3.753-8.823C327.331,245.298,322.131,239.92,315.715,239.92z"/>
		</g>
		<g>
			<defs>
				<path id="XMLID_4_" d="M330.594,343.937c-16.223,7.581-24.661,25.058-21.481,41.879c0.882,4.666,6.118,7.059,10.242,4.705
					c14.665-8.371,38.359-19.433,54.187-25.315c4.45-1.654,5.973-7.204,2.96-10.874C365.64,341.099,346.818,336.356,330.594,343.937
					z"/>
			</defs>
			<use xlink:href="#XMLID_4_"  style="overflow:visible;fill:#EE5253;"/>
			<clipPath id="XMLID_00000047051473748992362970000016102936464861122968_">
				<use xlink:href="#XMLID_4_"  style="overflow:visible;"/>
			</clipPath>
			<path style="opacity:0.1;clip-path:url(#XMLID_00000047051473748992362970000016102936464861122968_);fill:#FFFFFF;" d="
				M378.502,352.333c-10.862-13.234-29.684-17.977-45.909-10.395c-8.151,3.809-14.334,10.116-18.069,17.583
				c3.721-5.261,8.813-9.66,15.069-12.583c16.225-7.581,35.046-2.839,45.909,10.395c1.248,1.52,1.707,3.361,1.513,5.116
				C380.29,360.243,381.152,355.561,378.502,352.333z"/>
		</g>
		<g>
			<defs>
				<path id="XMLID_9_" d="M307.766,261.254c0,0,5.003-21.605-25.75-16.014c-9.854,1.792-15.091,11.362-1.488,15.444
					c2.448,0.734,8.238-0.764,11.238,3.903c2.005,3.12,0,0,0,0l26,50c4.272,8.987,8.52,21.387,3,29.667l0,0
					c-4.447,6.67-14.985,27.866-23,28l-34.553,0.768c-9.58,0.213-18.384-5.81-21.132-14.99c-1.073-3.586-0.967-6.61-0.854-9.159
					l6.684-24.261c1.443-5.236-2.459-10.42-7.89-10.483l-61.256,1.125c-13.913,3.896-41.018,20.906-39.5,45.5
					c1.097,17.77,17.975,11.241,25.833,13.167c25.25,6.187,47.369,10.106,58.324,13.505c8.848,2.746,18.081,4.048,27.343,3.828l54-2
					c9.133-0.217,18.345-12.013,24.426-18.832c7-7.851,20.472-18.949,22.574-37.168
					C354.766,307.254,307.766,261.254,307.766,261.254z"/>
			</defs>
			<use xlink:href="#XMLID_9_"  style="overflow:visible;fill:#FF6B6B;"/>
			<clipPath id="XMLID_00000032627731212460230910000010390559047474780051_">
				<use xlink:href="#XMLID_9_"  style="overflow:visible;"/>
			</clipPath>
			
				<ellipse style="clip-path:url(#XMLID_00000032627731212460230910000010390559047474780051_);fill:#FDC94F;" cx="139.266" cy="359.254" rx="5.5" ry="6.5"/>
			<path style="opacity:0.6;clip-path:url(#XMLID_00000032627731212460230910000010390559047474780051_);fill:#EE5253;" d="
				M279.861,262.017c2.448,0.734,8.238-0.764,11.238,3.903c0.017,0.026,0.028,0.043,0.044,0.069
				c-0.025-0.04-0.044-0.069-0.044-0.069l26,50c4.273,8.987,8.52,21.387,3,29.667c-4.022,6.033-13.028,23.949-20.643,27.414
				l3.643-0.081c8.015-0.134,18.553-21.33,23-28c5.52-8.28,1.273-20.68-3-29.667l-26-50c-3-4.667-8.791-3.168-11.238-3.903
				c-13.603-4.082-8.366-13.653,1.488-15.444c0.421-0.076,0.809-0.129,1.217-0.195c-2.159,0.107-4.545,0.376-7.217,0.862
				C271.495,248.365,266.258,257.935,279.861,262.017z M291.361,266.327c0.153,0.238,0.273,0.425,0.365,0.568
				C291.61,266.715,291.476,266.507,291.361,266.327z M291.802,267.013c0.077,0.12,0.128,0.199,0.155,0.242
				C291.925,267.205,291.871,267.121,291.802,267.013z"/>
			<path style="clip-path:url(#XMLID_00000032627731212460230910000010390559047474780051_);fill:#FDC94F;" d="M358.516,325.254
				h-11.5c-3.988,0-7.25-3.263-7.25-7.25l0,0c0-3.988,3.262-7.25,7.25-7.25h11.5c3.987,0,7.25,3.262,7.25,7.25l0,0
				C365.766,321.991,362.503,325.254,358.516,325.254z"/>
		</g>
		<g>
			<defs>
				<path id="XMLID_8_" d="M205.5,386.329c5.721-0.464,10.692-4.164,12.709-9.537c4.517-12.03,9.244-32.608-9.974-35.104
					c-27.363-3.554-64.398,15.696-66.452,34.661C140.204,390.936,187.525,387.789,205.5,386.329z"/>
			</defs>
			<use xlink:href="#XMLID_8_"  style="overflow:visible;fill:#EE5253;"/>
			<clipPath id="XMLID_00000072979952772720614990000013959992681594076084_">
				<use xlink:href="#XMLID_8_"  style="overflow:visible;"/>
			</clipPath>
			<path style="opacity:0.6;clip-path:url(#XMLID_00000072979952772720614990000013959992681594076084_);fill:#E25057;" d="
				M209.05,346.915c7.54,0.979,11.384,4.748,13.01,9.686c-0.14-7.822-3.482-14.594-13.988-15.959
				c-27.363-3.554-64.398,15.696-66.452,34.661c-0.183,1.689,0.296,3.137,1.303,4.38C147.111,361.356,182.598,343.48,209.05,346.915
				z"/>
		</g>
		<path style="fill:#8E333A;" d="M198.266,316.754h-73c-0.825,0-1.5-0.675-1.5-1.5l0,0c0-0.825,0.675-1.5,1.5-1.5h73
			c0.825,0,1.5,0.675,1.5,1.5l0,0C199.766,316.078,199.091,316.754,198.266,316.754z"/>
		<g>
			<defs>
				<path id="XMLID_10_" d="M243.629,317.64h-46.131c-3.988,0-7.25-3.263-7.25-7.25l0,0c0-3.987,3.262-7.25,7.25-7.25h46.131
					c3.988,0,7.25,3.263,7.25,7.25l0,0C250.879,314.378,247.617,317.64,243.629,317.64z"/>
			</defs>
			<use xlink:href="#XMLID_10_"  style="overflow:visible;fill:#AF3E43;"/>
			<clipPath id="XMLID_00000088845520148446136280000016974867024786583428_">
				<use xlink:href="#XMLID_10_"  style="overflow:visible;"/>
			</clipPath>
			<path style="clip-path:url(#XMLID_00000088845520148446136280000016974867024786583428_);fill:#9E3940;" d="M246.207,303.839
				c0.11,0.501,0.173,1.018,0.173,1.551c0,3.987-3.262,7.25-7.25,7.25h-46.131c-1.1,0-2.141-0.256-3.078-0.699
				c0.716,3.248,3.623,5.699,7.078,5.699h46.131c3.988,0,7.25-3.263,7.25-7.25C250.379,307.503,248.664,305.003,246.207,303.839z"/>
		</g>
		<g>
			<defs>
				<path id="XMLID_16_" d="M316.91,261.703c0,3.416-3.187,5.946-6.513,5.167c-8.385-1.964-14.443-7.616-14.443-14.282
					c0-6.667,6.058-12.319,14.443-14.283c3.326-0.779,6.513,1.751,6.513,5.167V261.703z"/>
			</defs>
			<use xlink:href="#XMLID_16_"  style="overflow:visible;fill:#FF6B6B;"/>
			<clipPath id="XMLID_00000062170671596523514520000008875573060369780104_">
				<use xlink:href="#XMLID_16_"  style="overflow:visible;"/>
			</clipPath>
			<path style="clip-path:url(#XMLID_00000062170671596523514520000008875573060369780104_);fill:#EF6767;" d="M316.649,259.258
				c0,3.416-3.187,5.946-6.513,5.167c-7.284-1.706-12.806-6.196-14.132-11.716c-0.023,0.292-0.05,0.583-0.05,0.878
				c0,6.667,6.058,12.319,14.443,14.282c3.326,0.779,6.513-1.751,6.513-5.167"/>
		</g>
		
			<line style="fill:none;stroke:#752C34;stroke-width:8;stroke-linecap:round;stroke-linejoin:round;stroke-miterlimit:10;" x1="286.78" y1="257.39" x2="277.694" y2="267.365"/>
		<g>
			<defs>
				<path id="XMLID_3_" d="M354.099,382.087c0,1.749-1.418,3.167-3.167,3.167s-3.167-1.418-3.167-3.167s1.418-3.167,3.167-3.167
					S354.099,380.338,354.099,382.087z"/>
			</defs>
			<use xlink:href="#XMLID_3_"  style="overflow:visible;fill:#727172;"/>
			<clipPath id="XMLID_00000158749680060845617610000017117627112393533368_">
				<use xlink:href="#XMLID_3_"  style="overflow:visible;"/>
			</clipPath>
			<path style="opacity:0.3;clip-path:url(#XMLID_00000158749680060845617610000017117627112393533368_);fill:#5B5B5B;" d="
				M353.229,379.453c0.221,0.465,0.354,0.98,0.354,1.529c0,1.982-1.606,3.588-3.588,3.588c-1.065,0-2.01-0.473-2.667-1.209
				c0.575,1.214,1.802,2.059,3.234,2.059c1.981,0,3.588-1.606,3.588-3.588C354.15,380.915,353.796,380.088,353.229,379.453z"/>
		</g>
		<path style="fill:none;stroke:#D84C53;stroke-width:4;stroke-linecap:round;stroke-linejoin:round;stroke-miterlimit:10;" d="
			M276.766,235.42c0,0,15.333,4.653,17.333,19.66"/>
		<g>
			<defs>
				<path id="XMLID_15_" d="M279.641,234.753c0,4.05-2.752,7.333-6.146,7.333c-3.394,0-6.146-3.283-6.146-7.333
					c0-4.05,2.752-7.333,6.146-7.333C276.889,227.42,279.641,230.703,279.641,234.753z"/>
			</defs>
			<use xlink:href="#XMLID_15_"  style="overflow:visible;fill:#FF6B6B;"/>
			<clipPath id="XMLID_00000129197580525648844310000013229809038506150547_">
				<use xlink:href="#XMLID_15_"  style="overflow:visible;"/>
			</clipPath>
			<path style="clip-path:url(#XMLID_00000129197580525648844310000013229809038506150547_);fill:#EA6868;" d="M276.089,228.113
				c1.176,1.336,1.913,3.217,1.913,5.308c0,4.05-2.752,7.333-6.146,7.333c-0.928,0-1.805-0.253-2.594-0.692
				c1.102,1.252,2.591,2.026,4.233,2.026c3.394,0,6.146-3.283,6.146-7.333C279.641,231.811,278.185,229.281,276.089,228.113z"/>
		</g>
		<path style="fill:#070302;" d="M201.606,170.113c-1.788-0.653-4.987,7.861,5.514,9.635c0,0,5.442,10.005,10.852-5.134"/>
		<g>
			<defs>
				<path id="XMLID_121_" d="M192.076,272.256c-3.314-0.737-2.466-6.331-2.382-9.724c0.28-11.396,2.756-46.652,13.076-64.214
					c1.919-3.266,4.098-6.055,8.917-7.746c2.827-0.992,3.801-7.571,4.993-11.86l17.347,8.82c0,0-4.5,5.667-0.667,11
					c1.203,1.674,0.989,32.626,0.989,32.626s4.793,24.243,0.345,39.374c-0.714,2.428-3.277,5.615-5.762,5.139L192.076,272.256z"/>
			</defs>
			<use xlink:href="#XMLID_121_"  style="overflow:visible;fill:#FF6B6B;"/>
			<clipPath id="XMLID_00000158714416255162235650000004949542087039344512_">
				<use xlink:href="#XMLID_121_"  style="overflow:visible;"/>
			</clipPath>
			<path style="clip-path:url(#XMLID_00000158714416255162235650000004949542087039344512_);fill:#F7AE8B;" d="M202.557,193.091
				c8.996-4.576,18.052-1.761,33.902,7.116c2.215,1.241,8.719-7.444,8.719-7.444l-16.389-17.915l-18.408-2.395L202.557,193.091z"/>
			<path style="opacity:0.1;clip-path:url(#XMLID_00000158714416255162235650000004949542087039344512_);fill:#AD3E47;" d="
				M215.008,209.664c0,0,0.024,34.529,5.79,46.537c6.227,12.971,33.79,6.937,33.79,6.937l-23.996-13.943L215.008,209.664z"/>
			<path id="XMLID_131_" style="clip-path:url(#XMLID_00000158714416255162235650000004949542087039344512_);fill:#EFA689;" d="
				M255.384,141.114c-2.954,50.356-7.077,63.172-29.023,51.084c-20.174-11.112-30.365-20.254-35.656-50.374
				c-5.032-28.641,7.891-28.046,27.506-29.314C251.566,110.353,256.161,127.862,255.384,141.114z"/>
			<path style="opacity:0.1;clip-path:url(#XMLID_00000158714416255162235650000004949542087039344512_);fill:#AD3E47;" d="
				M211.687,190.572c0,0-13.813,1.709-15.122,52.372l-4.488,29.311l-7.489-6.488C184.587,265.768,186.256,191.656,211.687,190.572z"
				/>
		</g>
		<g id="element_12_">
			<g>
				<defs>
					<path id="XMLID_120_" d="M217.027,210.365c-1.833,6.099-0.387,9.248,0.521,15.552l4.036,21.464
						c1.103,11.661,7.114,13.346,17.354,14.767l36.422,1.884l6.833-6.583l1.333-0.25c-44.928-6.61-47.247-7.989-47.335-16.045
						c-0.016-1.464,0.032-2.929,0.113-4.391l0.498-8.978c-0.319-4.065-0.474-8.145-0.366-12.221
						c0.165-6.181-1.015-8.598-9.077-11.865C222.542,201.746,219.062,203.595,217.027,210.365z"/>
				</defs>
				<use xlink:href="#XMLID_120_"  style="overflow:visible;fill:#F7AE8B;"/>
				<clipPath id="XMLID_00000029726769880338245440000013754919539321967490_">
					<use xlink:href="#XMLID_120_"  style="overflow:visible;"/>
				</clipPath>
				<path style="opacity:0.4;clip-path:url(#XMLID_00000029726769880338245440000013754919539321967490_);fill:#EAA286;" d="
					M280.584,264.555c-50.002-2.623-54.034-1.89-58.89-33.773c-1.466-9.625-2.024-24.944,2.937-33.321l0,0l-12.589,2.134
					l8.916,48.686c-0.7,11.467,7.312,15.667,14.773,14.298l44.945,3.211L280.584,264.555L280.584,264.555z"/>
			</g>
		</g>
		<g>
			<g>
				<g>
					<g>
						<g>
							<defs>
								<path id="XMLID_129_" d="M247.828,123.662c3.945,4.539,6.028,10.414,6.206,16.425c1.396,47.031-2.9,60.373-24.208,48.538
									c-16.635-9.239-30.447-14.752-34.454-45.069c-0.914-6.912,2.2-25.31,21.614-28.378
									C233.495,112.57,242.725,117.79,247.828,123.662z"/>
							</defs>
							<use xlink:href="#XMLID_129_"  style="overflow:visible;fill:#F7AE8B;"/>
							<clipPath id="XMLID_00000010284742595894826480000009041892427503222409_">
								<use xlink:href="#XMLID_129_"  style="overflow:visible;"/>
							</clipPath>
							<path style="opacity:0.05;clip-path:url(#XMLID_00000010284742595894826480000009041892427503222409_);fill:#99594B;" d="
								M274.821,80.325c0,0,22.937,120.104-42.163,125.18c0,0,47.325,7.961,55.327-19.061
								C295.987,159.423,312.195,76.121,274.821,80.325z"/>
						</g>
					</g>
					<path style="fill:#C64747;" d="M210.917,209.347"/>
				</g>
			</g>
			<path style="fill:#F7AE8B;" d="M252.832,161.68c0,0,5.864,10.861,4.908,12.184c-1.246,1.726-7.708,2.034-7.708,2.034"/>
			<g>
				<path style="fill:#1D1D1B;" d="M249.092,163.826c-0.135,2.701-1.905,4.808-3.954,4.706c-2.049-0.102-3.6-2.375-3.466-5.076
					c0.135-2.701,1.905-4.808,3.953-4.706C247.675,158.853,249.226,161.125,249.092,163.826z"/>
			</g>
			<path style="fill:#F7AE8B;" d="M214.89,165.699c0.848-4.367,4.806-7.273,8.841-6.489c4.035,0.783,6.618,4.959,5.77,9.326
				c-0.848,4.367-4.806,7.273-8.841,6.489C216.626,174.242,214.043,170.067,214.89,165.699z"/>
			
				<path style="fill:none;stroke:#070302;stroke-width:3.2326;stroke-linecap:round;stroke-linejoin:round;stroke-miterlimit:10;" d="
				M239.146,155.534c0,0,3.771-3.88,9.109-1.964"/>
		</g>
		<path style="fill:none;stroke:#D84C53;stroke-width:4;stroke-linecap:round;stroke-linejoin:round;stroke-miterlimit:10;" d="
			M210.477,171.808c0,0,6.034,14.216,28.431,21.117"/>
		<path style="fill:#070302;" d="M228.776,143.078c0,0,10.284,10.284,19.917,7.954c9.633-2.33,3.975-7.9,3.975-7.9
			s0.702,8.255,7.402,8.295c6.7,0.04-0.345-17.938-13.137-14.267"/>
		<line style="fill:none;stroke:#FFFFFF;stroke-miterlimit:10;" x1="236.268" y1="172.784" x2="214.89" y2="165.699"/>
		<path style="fill:none;stroke:#FFFFFF;stroke-miterlimit:10;" d="M236.885,185.923L236.885,185.923
			c-7.907-2.507-15.428-6.098-22.348-10.672l-2.256-1.491"/>
		<g>
			<defs>
				<path id="XMLID_20_" d="M256.194,143.532l-13.173-0.031c-11.496-0.027-22.156,11.677-22.119,23.172l0.012,3.585
					c0.02,6.089-6.188,10.222-11.794,7.846c-8.225-3.486-18.062-10.406-20.074-23.827c-3.766-25.121,14.771-45.954,32.874-46.49
					c23.199-0.686,37.956,13.181,38.484,31.447C260.471,141.594,258.553,143.537,256.194,143.532z"/>
			</defs>
			<use xlink:href="#XMLID_20_"  style="overflow:visible;fill:#EE5253;"/>
			<clipPath id="XMLID_00000039840570193232638460000008905003023199778742_">
				<use xlink:href="#XMLID_20_"  style="overflow:visible;"/>
			</clipPath>
			<g style="clip-path:url(#XMLID_00000039840570193232638460000008905003023199778742_);">
				<path style="fill:#E04F56;" d="M195.545,153.778c-3.329-22.203,10.766-41.045,26.584-45.495
					c-0.891-0.018-1.792-0.022-2.71,0.006c-18.103,0.535-36.64,21.369-32.874,46.49c2.012,13.421,11.848,20.34,20.074,23.827
					c3.053,1.294,6.278,0.648,8.585-1.185C207.066,173.878,197.524,166.975,195.545,153.778z"/>
			</g>
		</g>
		<g>
			<defs>
				<path id="XMLID_13_" d="M233.625,171.624c0,0,22.326-1.905,22.589-4.391c0.238-2.248,5.397,9.179,0.382,18.93
					c-0.947,1.84-2.961,2.879-5.009,2.577l-15.265-2.248L233.625,171.624z"/>
			</defs>
			<use xlink:href="#XMLID_13_"  style="overflow:visible;fill:#F9F9F9;"/>
			<clipPath id="XMLID_00000177442791992400580880000017106725613293031062_">
				<use xlink:href="#XMLID_13_"  style="overflow:visible;"/>
			</clipPath>
			
				<path style="clip-path:url(#XMLID_00000177442791992400580880000017106725613293031062_);fill:none;stroke:#E2E2E2;stroke-width:0.25;stroke-linecap:round;stroke-linejoin:round;stroke-miterlimit:10;stroke-dasharray:0.5,0.5;" d="
				M234.534,172.537c0,0,23.987-2.56,24.223-4.784c0.213-2.01,5.196,8.282,0.71,17.003c-0.847,1.646-2.917,3.956-4.749,3.686
				l-17.965-2.471L234.534,172.537z"/>
			<g style="clip-path:url(#XMLID_00000177442791992400580880000017106725613293031062_);">
				<defs>
					<path id="XMLID_14_" d="M235.332,173.313c0,0,24.871-2.85,25.043-5.011c0.156-1.954,5.51,9.346,0.639,17.852
						c-0.919,1.605-2.967,2.281-5.137,2.035l-18.455-2.586L235.332,173.313z"/>
				</defs>
				<use xlink:href="#XMLID_14_"  style="overflow:visible;fill:#EDEDED;"/>
				<clipPath id="XMLID_00000144323988087432489320000008331183746670811780_">
					<use xlink:href="#XMLID_14_"  style="overflow:visible;"/>
				</clipPath>
			</g>
			
				<path style="opacity:0.3;clip-path:url(#XMLID_00000177442791992400580880000017106725613293031062_);fill:none;stroke:#FFFFFF;stroke-width:5;stroke-miterlimit:10;" d="
				M233.13,177.479c0,0,20.76-0.186,30.29-4.706"/>
			
				<path style="opacity:0.3;clip-path:url(#XMLID_00000177442791992400580880000017106725613293031062_);fill:none;stroke:#FFFFFF;stroke-width:5;stroke-miterlimit:10;" d="
				M233.804,185.344c0,0,20.76-0.186,30.29-4.706"/>
		</g>
		<path style="fill:#F7AE8B;" d="M272.444,263.657c0,0,6.625-0.25,10.516,3.866c0.55,0.582,1.518,0.615,1.916-0.081
			c0.198-0.346,0.235-0.827-0.099-1.494c-1.038-2.076-7.667-5.667-7.667-5.667"/>
		<path style="fill:#F7AE8B;" d="M275.194,260.532c0,0,7.273,2.625,9.084,4.831c0.509,0.619,1.518,0.615,1.916-0.081
			c0.198-0.346,0.235-0.827-0.099-1.494c-1.038-2.076-8.235-5.756-8.235-5.756"/>
		<path style="fill:#F7AE8B;" d="M278.197,259.908c0,0,5.561,1.612,7.721,3.477c0.607,0.523,1.601,0.347,1.874-0.406
			c0.136-0.374,0.09-0.855-0.352-1.455c-1.377-1.869-8.52-4.278-8.52-4.278"/>
		<path style="fill:#F7AE8B;" d="M278.522,259.188c0,0,5.778,0.372,8.29,1.725c0.705,0.38,1.638-0.007,1.742-0.801
			c0.052-0.395-0.097-0.854-0.658-1.345c-1.748-1.527-9.243-2.335-9.243-2.335"/>
		<path style="fill:#F7AE8B;" d="M275.444,255.907c0,0,3.875,0,6-1.5s2.375,2.75-0.375,2.875"/>
		<path style="fill:#C14652;" d="M267.584,357.708l-13.576-1.156c-1.644-0.14-2.875-1.6-2.735-3.244l0,0
			c0.14-1.644,1.6-2.875,3.244-2.735l13.577,1.156c1.644,0.14,2.875,1.6,2.735,3.244l0,0
			C270.687,356.618,269.228,357.848,267.584,357.708z"/>
		<path style="fill:none;stroke:#D84C53;stroke-width:4;stroke-linecap:round;stroke-linejoin:round;stroke-miterlimit:10;" d="
			M209.027,191.032c0,0,15.667,4.667,26,7.667"/>
		<path style="fill:#EF6767;" d="M218.425,228.811c-2.09,0.15-3.96-1.28-4.36-3.337c-1.541-7.926-3.606-26.27,10.099-26.943
			c13.497-0.663,15.447,16.793,15.633,24.816c0.051,2.199-1.647,4.046-3.841,4.203L218.425,228.811z"/>
		<circle style="fill:#E04F56;" cx="211.694" cy="164.032" r="5"/>
		<g>
			<defs>
				<path id="XMLID_21_" d="M318.287,174.979l33.386,0c0.334-0.324,0.666-0.649,0.988-0.986c0.131,0.332,0.272,0.659,0.411,0.986
					l63.108,0c8.886,0,16.249-7.122,16.286-16.008c0-0.057,0-0.115,0-0.172c0-16.464-9.623-30.677-23.55-37.33
					c0.117-1.174,0.179-2.365,0.179-3.571c0-19.61-15.897-35.507-35.507-35.507c-19.129,0-34.717,15.128-35.471,34.071
					c-4.656-1.51-9.732-2.086-15.019-1.464c-16.494,1.943-29.493,15.501-30.757,32.061c-0.036,0.469-0.062,0.936-0.08,1.401
					C291.715,163.017,303.72,174.978,318.287,174.979z"/>
			</defs>
			<use xlink:href="#XMLID_21_"  style="overflow:visible;fill:#FCFCFC;"/>
			<clipPath id="XMLID_00000178201821619143094730000008135501162782225334_">
				<use xlink:href="#XMLID_21_"  style="overflow:visible;"/>
			</clipPath>
			<path style="opacity:0.5;clip-path:url(#XMLID_00000178201821619143094730000008135501162782225334_);fill:#F4F4F4;" d="
				M414.759,121.02c0.117-1.174,0.179-2.365,0.179-3.571c0-19.61-15.897-35.507-35.506-35.507c-3.038,0-5.985,0.384-8.798,1.102
				c17.829,1.891,31.72,16.974,31.72,35.304c0,1.205-0.061,2.396-0.179,3.57c13.927,6.653,23.55,20.866,23.55,37.33
				c0,0.057,0,0.115,0,0.172c-0.029,7.03-4.651,12.941-10.978,15.109h7.276c8.886,0,16.249-7.122,16.286-16.008
				c0-0.057,0-0.115,0-0.172C438.309,141.886,428.686,127.672,414.759,121.02z"/>
			<path style="opacity:0.1;clip-path:url(#XMLID_00000178201821619143094730000008135501162782225334_);fill:#DBDBDB;" d="
				M301.101,150.259c0.017-0.465,0.044-0.932,0.08-1.401c1.264-16.559,14.263-30.118,30.757-32.061
				c5.286-0.623,10.363-0.047,15.019,1.464c0.754-18.944,16.342-34.071,35.471-34.071c0.78,0,1.551,0.034,2.318,0.083
				c-3.932-1.501-8.196-2.331-12.655-2.331c-19.128,0-34.717,15.128-35.471,34.071c-4.656-1.51-9.732-2.086-15.019-1.464
				c-16.494,1.943-29.493,15.501-30.757,32.061c-0.036,0.469-0.062,0.936-0.08,1.401c-0.543,14.456,11.295,26.347,25.726,26.51
				C307.181,170.393,300.696,161.041,301.101,150.259z"/>
		</g>
		<g>
			<defs>
				<path id="XMLID_22_" d="M73.82,221.352h62.07c13.835,0,25.716-10.52,26.647-24.324c0.033-0.486,0.054-0.976,0.064-1.469
					c0.287-14.487-10.166-27.32-24.418-29.934c-4.07-0.747-8.062-0.646-11.815,0.165c-2.408-12.547-12.871-22.507-26.229-23.693
					c-15.022-1.333-28.397,8.899-31.345,23.333c-12.028,3-21.396,13.333-22.553,26.375c-0.047,0.53-0.08,1.058-0.099,1.584
					C45.583,208.777,58.422,221.352,73.82,221.352z"/>
			</defs>
			<use xlink:href="#XMLID_22_"  style="overflow:visible;fill:#FCFCFC;"/>
			<clipPath id="XMLID_00000083791296624521448870000001250198058994802569_">
				<use xlink:href="#XMLID_22_"  style="overflow:visible;"/>
			</clipPath>
			<path style="opacity:0.1;clip-path:url(#XMLID_00000083791296624521448870000001250198058994802569_);fill:#DBDBDB;" d="
				M52.788,196.158c0.019-0.526,0.052-1.054,0.099-1.583c1.158-13.042,10.525-23.375,22.553-26.375
				c2.947-14.433,16.323-24.666,31.345-23.333c1.523,0.135,3.002,0.398,4.442,0.752c-4.218-3.16-9.328-5.237-14.965-5.737
				c-15.022-1.333-28.397,8.9-31.345,23.333c-12.028,3-21.396,13.333-22.553,26.375c-0.047,0.53-0.08,1.058-0.099,1.583
				c-0.478,13.165,8.854,24.264,21.201,27.198C56.752,213.252,52.46,205.192,52.788,196.158z"/>
			<g style="opacity:0.5;clip-path:url(#XMLID_00000083791296624521448870000001250198058994802569_);">
				<path style="fill:#F4F4F4;" d="M136.997,222.46c13.835,0,25.716-10.52,26.647-24.324c0.033-0.486,0.054-0.976,0.064-1.469
					c0.233-11.784-6.64-22.473-16.883-27.459c6.447,5.67,10.415,14.029,10.237,23.028c-0.01,0.493-0.031,0.983-0.064,1.469
					c-0.932,13.803-6.777,26.17-43.7,29.862"/>
			</g>
		</g>
	</g>
</g>
</svg>
