<?xml version="1.0" encoding="utf-8"?>
<!-- Generator: Adobe Illustrator 27.5.0, SVG Export Plug-In . SVG Version: 6.00 Build 0)  -->
<svg version="1.1" id="Layer_1" xmlns="http://www.w3.org/2000/svg" xmlns:xlink="http://www.w3.org/1999/xlink" x="0px" y="0px"
	 viewBox="0 0 417.615 388.321" style="enable-background:new 0 0 417.615 388.321;" xml:space="preserve">
<g>
	<g>
		<g>
			<path style="fill:#D09670;" d="M406.598,343.528c-0.594-7.839-1.437-15.681-2.536-23.465c-1.006-7.125-2.37-14.238-4.752-21.044
				c-0.437-1.248-0.911-2.478-1.424-3.687c-0.031-0.056-0.062-0.112-0.093-0.168c-1.066-1.909-2.164-3.8-3.243-5.701
				c-0.719-0.166-1.434-0.368-2.154-0.53c-0.501-0.042-1.003-0.08-1.503-0.109c-4.755-0.274-9.528-0.029-14.277,0.248
				c-10.866,0.633-21.706,0.507-32.578-0.055c-12.432-0.643-24.765-2.02-37.064-3.918c-11.901-1.836-23.788-3.923-35.41-7.116
				c-6.36-1.747-12.715-3.651-18.588-6.698c-2.454-1.273-4.832-2.682-7.187-4.129c-3.81-5.964-8.468-11.371-13.72-16.112
				c-11.166-10.079-25.105-17.155-39.441-21.495c-7.54-2.283-15.322-3.849-23.141-4.793c-8.707-1.051-17.488-1.196-26.245-1.457
				c-8.867-0.264-17.598-1.175-26.353-2.602c-4.315-0.703-8.619-1.475-12.928-2.215c-3.062-0.526-6.15-0.933-9.167-1.685
				c-5.481-1.365-10.857-3.135-16.43-4.116c-1.241-0.218-2.537-0.419-3.855-0.557c-3.115-0.85-6.438-0.785-9.722-0.313
				c-4.818,0.693-9.803,2.265-13.815,5.088c-4.076,2.868-7.373,7.094-9.561,11.541c-2.298,4.669-3.291,9.71-1.287,14.658
				c0.867,2.141,2.023,4.143,3.197,6.129c-3.504,1.003-6.589,3.426-9.047,6.031c-2.881,3.053-5.722,7.013-6.741,11.151
				c-1.165,4.732,0.696,9.495,3.231,13.446c0.935,1.458,1.949,2.781,3.081,3.956c-4.251,5.37-8.269,12.721-5.784,19.678
				c1.122,3.142,3.302,5.992,5.664,8.305c2.465,2.415,5.447,4.419,8.897,5.02c2.81,0.49,5.611,0.435,8.404,0.138
				c-2.454,1.822-4.226,4.887-5.094,7.541c-1.228,3.758-0.992,7.832,1.183,11.192c2.156,3.33,5.686,5.596,9.197,7.278
				c4.084,1.957,8.461,3.46,12.913,4.286c3.208,0.596,6.452,0.882,9.686,1.288c1.789,0.225,3.564,0.543,5.366,0.653
				c0.928,0.057,1.888-0.117,2.837-0.214c5.469,0.551,10.983,0.496,16.518,0.491c9.821-0.009,19.626,0.45,29.443-0.039
				c10.034-0.5,20.082-0.607,30.126-0.619c9.869-0.012,19.762,0.842,29.623,0.175c8.652-0.585,17.598-1.889,25.869-4.547
				c2.653-0.853,5.197-1.904,7.622-3.15c1.366,0.222,2.731,0.465,4.094,0.738c6.757,1.35,13.41,3.108,20.024,5.029
				c13.058,3.793,25.969,7.968,39.142,11.365c13.784,3.554,27.6,6.997,41.509,10.033c13.518,2.951,27.099,5.307,40.774,7.383
				c6.124,0.929,12.235,1.99,18.415,2.48c4.372,0.346,8.988,0.522,13.381-0.249c-0.004,0.022-0.009,0.043-0.013,0.065
				c0.61-0.202,1.225-0.39,1.842-0.569c0.117-0.475,0.229-0.951,0.335-1.429c-0.026,0.006-0.053,0.012-0.079,0.018
				c0.359-2.207,0.635-4.408,0.855-6.565C407.475,360.931,407.254,352.194,406.598,343.528z M95.17,252.44
				c-1.599,0.172-3.177,0.461-4.763,0.718c-4.684,0.758-9.244-0.354-13.922-0.407c-0.098-0.001-0.207,0.04-0.314,0.106
				c-0.28-1.391-0.672-2.763-1.138-4.115c1.257-0.192,2.697,0.056,3.862,0.256c1.633,0.279,3.235,0.699,4.858,1.025
				c2.167,0.436,4.354,0.771,6.521,1.209c1.272,0.257,2.542,0.523,3.812,0.788c0.629,0.131,1.27,0.223,1.911,0.315
				C95.683,252.365,95.385,252.417,95.17,252.44z"/>
			<path style="fill:#FFE3CB;" d="M28.822,270.836c-0.724-4.892,1.972-9.547,4.935-13.236c2.659-3.311,5.997-6.145,9.982-7.662
				c0.233,0.394,0.466,0.789,0.697,1.184c1.525,2.618,2.73,5.34,3.851,8.151c2.033,5.097,4.139,11.11,9.114,14.071
				c4.367,2.599,9.943,2.375,13.689-1.2c1.409-1.344,2.485-2.997,3.305-4.79c6.513,3.34,14.112,7.836,14.437,16.056
				c0.133,3.371-1.196,6.766-4.072,8.676c-3.785,2.515-8.526,1.347-12.609,0.318c-4.55-1.147-9.14-1.896-13.8-2.44
				c-4.325-0.505-8.718-0.732-12.969-1.729c-3.872-0.908-7.717-2.51-10.435-5.517C32.021,279.479,29.468,275.198,28.822,270.836z"/>
			<path style="fill:#FFE3CB;" d="M81.927,291.693c-2.56,0.216-5.173,0.141-7.729-0.076c-6.402-0.542-12.672-2.053-18.944-3.373
				c-2.888-0.608-5.818-1.049-8.641-1.925c-2.747-0.852-5.428-2.031-7.793-3.681c-1.804-1.259-3.3-2.79-4.61-4.549
				c-1.371-1.842-2.553-3.835-3.522-5.917c-0.76-1.634-1.402-3.346-1.787-5.112c-0.222,1.234-0.268,2.496-0.079,3.775
				c0.646,4.362,3.199,8.643,6.125,11.881c2.717,3.007,6.563,4.61,10.435,5.517c4.251,0.996,8.644,1.224,12.969,1.729
				c4.66,0.544,9.25,1.294,13.8,2.44c4.083,1.029,8.823,2.197,12.609-0.318c0.613-0.407,1.152-0.886,1.625-1.414
				C85.001,291.311,83.418,291.568,81.927,291.693z"/>
			<path style="fill:#FFE3CB;" d="M88.831,283.409c-0.325-8.221-7.925-12.716-14.437-16.056c-0.819,1.794-1.896,3.446-3.305,4.79
				c-3.746,3.575-9.322,3.799-13.689,1.2c-4.974-2.96-7.08-8.973-9.114-14.071c-1.122-2.812-2.326-5.533-3.851-8.151
				c-0.23-0.395-0.463-0.79-0.696-1.184c-3.985,1.517-7.323,4.351-9.982,7.662c-2.962,3.689-5.659,8.343-4.935,13.236
				c0.367,2.479,1.351,4.932,2.669,7.182c-0.119-0.57-0.203-1.148-0.262-1.722c-0.181-1.746-0.132-3.515,0.066-5.258
				c0.211-1.858,0.592-3.7,1.159-5.483c0.534-1.682,1.231-3.329,2.169-4.827c0.814-1.3,1.828-2.515,3.112-3.374
				c1.173-0.785,2.563-1.204,3.979-1.104c0.667,0.047,1.363,0.16,1.943,0.512c0.551,0.334,1.007,0.813,1.403,1.316
				c1.105,1.404,1.888,3.055,2.636,4.667c0.907,1.956,1.739,3.946,2.654,5.899c0.87,1.858,1.802,3.717,3.014,5.38
				c0.514,0.705,1.089,1.375,1.756,1.94c0.751,0.636,1.646,1.104,2.574,1.425c2.414,0.835,5.061,0.743,7.569,0.516
				c2.802-0.253,5.58-0.734,8.387-0.939c1.334-0.098,2.676-0.134,4.01-0.026c0.634,0.051,1.267,0.135,1.89,0.263
				c0.649,0.133,1.284,0.364,1.891,0.626c1.686,0.726,3.312,2.014,3.541,3.952c0.203,1.72-0.759,3.355-1.926,4.536
				c-1.544,1.561-3.542,2.489-5.632,3.074c-2.493,0.697-5.089,1.035-7.666,1.222c-1.907,0.138-3.823,0.178-5.736,0.136
				c2.728,0.44,5.437,0.978,8.131,1.656c4.083,1.029,8.823,2.197,12.609-0.318C87.635,290.176,88.965,286.78,88.831,283.409z"/>
			<path style="fill:#FFE3CB;" d="M46.256,315.749c-3.394-0.132-6.345-1.088-9.068-3.137c-2.563-1.929-4.727-4.436-6.36-7.192
				c-4.302-7.265-0.575-14.796,3.328-21.293c1.775,1.766,3.838,3.178,6.34,4.172c4.149,1.65,8.637,2.105,13.042,2.556
				c5.525,0.566,11.081,1.17,16.478,2.523c4.327,1.085,9.16,2.526,13.503,0.73c1.128-0.466,2.149-1.118,3.041-1.908
				c0.006,0.084,0.027,0.168,0.074,0.248c3.041,5.22,2.748,12.316-1.875,16.539c-4.8,4.386-11.759,3.906-17.796,4.305
				C60.029,313.751,53.244,316.021,46.256,315.749z"/>
			<path style="fill:#FFE3CB;" d="M87.788,304.388c-0.002,0.005-0.001,0.008-0.003,0.013c-0.248,0.593-0.557,1.155-0.926,1.681
				c-1.606,2.292-4.089,3.966-6.681,4.954c-3.076,1.172-6.452,1.023-9.678,0.763c-3.65-0.294-7.361-0.864-11.014-0.318
				c-3.478,0.52-6.85,1.665-10.369,1.925c-2.676,0.198-5.484-0.237-7.969-1.26c-1.972-0.812-3.75-2.039-5.18-3.624
				c-1.396-1.547-2.438-3.377-3.194-5.313c-0.799-2.046-1.277-4.205-1.559-6.379c-0.285-2.2-0.36-4.424-0.297-6.641
				c-2.173,4.909-3.107,10.135-0.09,15.231c1.632,2.756,3.797,5.263,6.36,7.192c2.723,2.049,5.674,3.005,9.068,3.137
				c6.988,0.272,13.773-1.998,20.709-2.457c0.462-0.031,0.929-0.056,1.4-0.078c0.103-0.048,0.206-0.094,0.308-0.143
				c0.116-0.056,0.222,0.023,0.251,0.117c5.538-0.247,11.549-0.282,15.837-4.2c1.437-1.313,2.454-2.903,3.085-4.628
				C87.826,304.369,87.807,304.379,87.788,304.388z"/>
			<path style="fill:#FFE3CB;" d="M86.635,292.449c-0.047-0.081-0.068-0.164-0.074-0.248c-0.892,0.79-1.914,1.441-3.041,1.908
				c-4.343,1.796-9.177,0.354-13.503-0.73c-5.397-1.353-10.953-1.956-16.478-2.523c-4.405-0.451-8.892-0.906-13.042-2.556
				c-2.502-0.995-4.564-2.406-6.34-4.172c-0.351,0.584-0.7,1.177-1.042,1.776c0.154,0.229,0.309,0.456,0.465,0.68
				c0.752,1.086,1.554,2.142,2.424,3.137c0.388,0.444,0.791,0.877,1.223,1.279c0.458,0.427,0.954,0.761,1.495,1.077
				c1.502,0.876,3.116,1.543,4.778,2.051c3.381,1.033,6.919,1.429,10.432,1.689c1.747,0.13,3.497,0.223,5.245,0.338
				c0.851,0.056,1.71,0.093,2.557,0.192c0.518,0.06,1.034,0.137,1.55,0.21c2.231,0.317,4.517,0.71,6.574,1.669
				c0.919,0.429,1.803,0.995,2.473,1.765c0.668,0.768,1.072,1.703,1.183,2.714c0.137,1.248-0.134,2.592-0.65,3.729
				c-0.522,1.151-1.377,2.118-2.367,2.891c-2.132,1.665-4.786,2.556-7.35,3.314c-3.109,0.919-6.235,1.805-9.375,2.611
				c4.397-0.637,8.764-1.666,13.193-1.959c6.037-0.399,12.996,0.081,17.796-4.305C89.383,304.764,89.676,297.668,86.635,292.449z"/>
			<path style="fill:#FFE3CB;" d="M405.154,366.234c-0.229,3.438-0.616,6.871-1.21,10.268c-3.949,0.65-8.004,0.622-11.995,0.356
				c-5.659-0.377-11.266-1.267-16.865-2.14c-6.231-0.972-12.476-1.831-18.691-2.91c-7.087-1.23-14.146-2.617-21.181-4.114
				c-13.789-2.934-27.484-6.291-41.142-9.781c-6.686-1.709-13.37-3.416-19.989-5.376c-6.449-1.91-12.858-3.951-19.303-5.873
				c-7.331-2.186-14.73-4.23-22.244-5.688c-1.403-0.272-2.815-0.53-4.234-0.767c4.168-2.399,7.945-5.419,11.246-9.095
				c0.244-0.271,0.482-0.549,0.721-0.825c-0.235,0.171-0.47,0.341-0.707,0.509c-1.464,1.041-2.963,2.037-4.506,2.957
				c-3.692,3.316-7.892,6.014-12.594,7.922c-7.824,3.176-16.293,4.387-24.623,5.397c-9.592,1.163-19.248,0.45-28.873,0.262
				c-9.63-0.188-19.293-0.038-28.919,0.289c-4.736,0.161-9.467,0.467-14.206,0.514c-4.797,0.048-9.594-0.068-14.39-0.149
				c-6.209-0.105-12.526,0.202-18.772-0.097c-2.01-0.03-4.02-0.054-6.03-0.038c-2.75,0.022-5.501,0.135-8.245-0.113
				c-1.387-0.126-2.785-0.329-4.113-0.761c-0.18-0.059-0.36-0.124-0.538-0.193c-4.687-0.678-9.169-1.845-13.556-3.647
				c-6.512-2.674-14.093-7.254-13.503-15.328c0.175-2.389,0.99-4.727,2.266-6.748c1.438-2.278,3.324-3.736,5.861-4.592
				c0.052-0.018,0.099-0.042,0.143-0.069c3.536-0.583,7.063-1.331,10.591-1.632c6.582-0.562,13.887,0.117,19.381-4.287
				c0.32-0.256,0.623-0.525,0.913-0.803c1.784-0.304,4.192,0.642,5.24,1.631c2.416,2.28,3.059,6.291,2.531,9.436
				c-1.205,7.168-8.14,11.789-14.531,13.996c-2.943,1.017-7.438,2.153-8.641,5.455c-0.245,0.673,0.669,0.579,0.972,0.285
				c1.502-1.453,2.886-2.476,4.85-3.251c1.8-0.711,3.672-1.223,5.446-2.001c3.592-1.575,7.04-3.791,9.626-6.771
				c2.458-2.834,4.14-6.52,4.009-10.328c-0.107-3.134-1.319-7.325-4.492-8.663c-0.955-0.403-2.729-0.757-4.247-0.578
				c4.246-4.745,4.703-11.838,1.432-17.43c-0.113-0.193-0.3-0.259-0.503-0.244c1.252-1.423,2.143-3.16,2.553-5.053
				c0.889-4.112-0.362-8.249-2.93-11.506c-3.142-3.986-7.65-6.175-12.087-8.396c-0.063-0.031-0.132-0.046-0.203-0.049
				c0.806-2.081,1.304-4.298,1.59-6.418c0.27-2.004,0.198-3.973-0.108-5.907c2.381,0.348,4.828,0.524,7.226,0.673
				c1.914,0.119,3.846,0.184,5.746-0.115c1.478-0.232,2.955-0.501,4.424-0.788c0.667-0.13,1.334-0.253,2.003-0.372
				c0.278-0.049,1.046-0.35,1.306-0.268c0.009,0.003,0.02,0.002,0.029,0.003c-0.013,0.052-0.025,0.104-0.037,0.157
				c-1.026,4.253-2.132,8.476-2.859,12.794c-0.719,4.274-1.076,8.601-1.166,12.933c-0.086,4.139,0.092,8.381,1.061,12.421
				c0.054,0.224,0.447,0.046,0.432-0.14c-0.738-8.762-0.184-17.329,1.393-25.975c1.532-8.401,4.829-16.925,4.353-25.563
				c-0.115-0.223-0.241-0.44-0.379-0.647c-0.639,4.414-1.551,8.762-2.578,13.097c-0.926-0.404-1.828-0.839-2.814-1.147
				c-1.281-0.4-2.588-0.749-3.896-1.05c-2.295-0.528-4.624-0.871-6.92-1.384c-1.79-0.4-3.577-0.835-5.401-1.054
				c-1.194-0.144-2.507-0.247-3.621,0.228c-0.583-1.56-1.251-3.094-1.941-4.601c-1.36-2.968-2.769-5.9-3.866-8.934
				c0.009-0.018,0.018-0.036,0.023-0.054c0.608-2.085,0.425-4.366,0.924-6.487c0.073-0.309-0.377-0.236-0.445-0.008
				c-0.45,1.498-0.832,3.068-1.144,4.631c-0.602-1.953-1.051-3.958-1.245-6.051c-0.024-0.262-0.246-0.294-0.478-0.214
				c-0.077,0.414-0.148,0.83-0.206,1.248c-0.126,0.911-0.204,1.829-0.235,2.749c0.99,8.184,6.855,15.358,8.504,23.415
				c1.621,7.925-1.969,22.755-12.863,20.048c-5.606-1.393-8.437-6.549-10.524-11.489c-1.06-2.507-1.989-5.069-3.116-7.548
				c-0.83-1.826-1.828-3.557-2.841-5.282c0.014-0.105-0.023-0.194-0.134-0.228c-0.304-0.516-0.608-1.033-0.909-1.551
				c-1.393-2.398-2.79-4.893-3.376-7.63c-0.484-2.26-0.218-4.618,0.412-6.822c1.368-4.79,4.291-9.225,7.85-12.676
				c3.616-3.507,8.362-5.479,13.226-6.567c0.605-0.135,1.215-0.254,1.827-0.359c-0.327,0.148-0.649,0.309-0.965,0.487
				c-0.057,0.032-0.111,0.066-0.167,0.099c1.608-0.382,3.269-0.555,4.915-0.622c1.881-0.077,3.775-0.003,5.648,0.183
				c0.418,0.042,0.835,0.094,1.251,0.151c0.311,0.037,0.62,0.077,0.925,0.119c0.469,0.064,0.936,0.138,1.403,0.215
				c0.135,0.05,0.268,0.104,0.401,0.158c0.366,0.08,0.731,0.165,1.094,0.255c0.051-0.035,0.096-0.078,0.125-0.124
				c4.5,0.87,8.905,2.216,13.326,3.403c6.568,1.764,13.399,2.601,20.096,3.744c8.277,1.413,16.598,2.688,24.993,3.109
				c8.526,0.427,17.067,0.39,25.583,1.049c7.98,0.617,15.915,1.893,23.675,3.861c14.504,3.678,28.607,10.059,40.404,19.341
				c5.629,4.429,10.658,9.589,14.939,15.331c3.544,4.754,6.886,9.974,9.104,15.556c0.258,0.926,0.49,1.86,0.7,2.799
				c0.123,0.291,0.245,0.582,0.365,0.874c0.398,0.971,0.778,1.949,1.157,2.928c0.454,1.173,0.821,2.379,1.14,3.595
				c0.069,0.265,0.134,0.531,0.198,0.797c0.094-0.069,0.159-0.173,0.131-0.279c-1.058-3.961-1.119-8.114-2.754-11.915
				c-1.316-3.062-2.851-6.03-4.549-8.897c0.977,0.621,1.963,1.229,2.965,1.813c4.889,2.848,10.089,4.845,15.483,6.511
				c11.506,3.554,23.345,5.902,35.22,7.833c12.122,1.971,24.271,3.596,36.528,4.436c11.324,0.776,22.809,1.314,34.152,0.693
				c5.3-0.29,10.602-0.699,15.914-0.613c2.125,0.035,4.286,0.132,6.425,0.388c1.237,2.327,2.29,4.747,3.185,7.159
				c2.457,6.623,3.874,13.606,4.922,20.576c1.11,7.38,1.895,14.832,2.552,22.265C405.332,349.095,405.724,357.684,405.154,366.234z"
				/>
			<path style="fill:#FFE3CB;" d="M253.716,275.233c2.987,3.148,6.658,5.525,10.607,7.287c5.352,2.387,11.167,3.814,16.801,5.362
				c6.586,1.81,13.221,3.438,19.903,4.851c13.381,2.83,26.961,4.808,40.623,5.551c6.715,0.365,13.449,0.431,20.169,0.136
				c5.91-0.259,11.826-0.304,17.738-0.535c5.63-0.221,11.389-0.576,17.04-1.464c-0.781-1.977-1.665-3.946-2.679-5.853
				c-2.138-0.256-4.299-0.353-6.425-0.388c-5.312-0.087-10.613,0.323-15.914,0.613c-11.343,0.621-22.829,0.083-34.152-0.693
				c-12.257-0.84-24.406-2.465-36.528-4.436c-11.874-1.931-23.713-4.279-35.22-7.833c-5.157-1.593-10.136-3.49-14.836-6.142
				C251.712,272.936,252.665,274.125,253.716,275.233z"/>
			<path style="fill:#FFE3CB;" d="M48.043,254.402c1.127,2.479,2.057,5.04,3.116,7.548c2.084,4.932,4.91,10.079,10.499,11.482
				c-0.159-0.101-0.315-0.206-0.465-0.315c-1.59-1.148-2.903-2.67-4.021-4.27c-0.505-0.723-0.973-1.473-1.386-2.253
				c-0.458-0.864-0.792-1.776-1.156-2.682c-1.097-2.732-2.277-5.431-3.598-8.063c-1.306-2.603-2.783-5.105-4.256-7.615
				c-1.367-2.329-2.7-4.72-3.46-7.327c-1.493-5.119-0.157-10.68,2.139-15.351c0.694-1.412,1.488-2.77,2.359-4.08
				c-2.996,3.241-5.413,7.189-6.62,11.415c-0.63,2.204-0.896,4.562-0.412,6.822c0.587,2.738,1.983,5.232,3.376,7.63
				c0.301,0.518,0.606,1.035,0.909,1.551c0.11,0.033,0.148,0.123,0.134,0.228C46.215,250.845,47.213,252.575,48.043,254.402z"/>
			<path style="fill:#FFE3CB;" d="M57.633,340.686c-1.761-1.465-3.408-3.085-4.785-4.921c-1.257-1.677-2.279-3.556-2.819-5.591
				c-0.517-1.95-0.637-4.084-0.015-6.024c0.543-1.692,1.638-3.125,3.002-4.245c1.459-1.199,3.158-2.07,4.889-2.804
				c1.84-0.78,3.737-1.412,5.628-2.055c0.081-0.027,0.162-0.055,0.243-0.083c-2.936,0.361-5.873,0.957-8.815,1.442
				c-0.044,0.027-0.091,0.051-0.143,0.069c-2.537,0.856-4.423,2.314-5.861,4.592c-1.276,2.022-2.091,4.36-2.266,6.748
				c-0.59,8.073,6.991,12.654,13.503,15.328c0.53,0.217,1.061,0.425,1.594,0.624C60.354,342.807,58.959,341.789,57.633,340.686z"/>
			<path style="fill:#FFE3CB;" d="M191.767,319.97c-2.078-2.024-4.412-3.774-6.817-5.388c-2.453-1.646-4.976-3.197-7.683-4.391
				c-1.532-0.675-3.105-1.251-4.696-1.771c-0.825-0.27-1.654-0.525-2.486-0.771c-0.767-0.227-1.54-0.431-2.288-0.717
				c-0.373-0.143-0.743-0.296-1.11-0.454c0.372,0.447,0.751,0.89,1.14,1.322c1.961,2.182,4.12,4.181,6.402,6.023
				c2.304,1.859,4.735,3.557,7.239,5.135c2.486,1.567,5.045,3.016,7.644,4.387c2.416,1.274,4.867,2.479,7.334,3.651
				c-0.045-0.167-0.092-0.333-0.146-0.498C195.465,323.959,193.654,321.808,191.767,319.97z"/>
			<path style="fill:#FFE3CB;" d="M405.214,349.638c-3.04,0.372-6.128,0.494-9.095,0.68c-8.719,0.549-17.389,0.737-26.12,0.264
				c-9.198-0.497-18.383-1.514-27.51-2.743c-8.902-1.199-17.765-2.732-26.506-4.812c-7.943-1.89-15.779-4.349-23.544-6.868
				c-7.389-2.397-14.778-5.142-21.417-9.234c-5.282-3.256-9.445-7.667-11.854-13.431c-2.267-5.424-2.938-11.358-3.277-17.178
				c-0.436-7.499-0.245-15.463-1.778-22.921c-1.325-0.64-2.631-1.328-3.916-2.076c-1.002-0.584-1.988-1.191-2.965-1.813
				c1.698,2.868,3.232,5.836,4.549,8.897c1.634,3.801,1.696,7.954,2.754,11.915c0.028,0.106-0.037,0.21-0.131,0.279
				c-0.064-0.266-0.129-0.532-0.198-0.797c-0.318-1.217-0.686-2.422-1.14-3.595c-0.379-0.979-0.759-1.957-1.157-2.928
				c-0.12-0.292-0.242-0.583-0.365-0.874c-0.21-0.94-0.442-1.873-0.7-2.799c-2.218-5.582-5.559-10.802-9.104-15.556
				c-4.281-5.743-9.31-10.902-14.939-15.331c-11.797-9.282-25.9-15.663-40.404-19.341c-7.76-1.968-15.695-3.244-23.675-3.861
				c-8.516-0.658-17.057-0.621-25.583-1.049c-8.395-0.421-16.716-1.696-24.993-3.109c-6.697-1.143-13.528-1.98-20.096-3.744
				c-4.422-1.187-8.826-2.533-13.326-3.403c-0.03,0.046-0.074,0.088-0.125,0.124c-0.364-0.09-0.729-0.175-1.094-0.255
				c-0.133-0.054-0.266-0.108-0.401-0.158c-0.466-0.077-0.934-0.15-1.403-0.215c-0.305-0.042-0.613-0.082-0.925-0.119
				c-0.416-0.058-0.832-0.11-1.251-0.151c-1.873-0.186-3.767-0.26-5.648-0.183c-1.646,0.067-3.307,0.241-4.915,0.622
				c0.056-0.033,0.111-0.067,0.167-0.099c0.316-0.178,0.638-0.339,0.965-0.487c-0.612,0.105-1.222,0.224-1.827,0.359
				c-3.607,0.807-7.148,2.102-10.213,4.146c1.888,0.197,3.731,0.831,5.313,1.88c0.063,0.042,0.101,0.117,0.079,0.193
				c-0.186,0.625-0.343,1.258-0.463,1.899c-0.47,2.498-0.371,5.067,0.18,7.544c0.548,2.468,1.505,4.824,2.631,7.081
				c1.173,2.351,2.529,4.605,3.896,6.846c1.356,2.224,2.733,4.439,3.967,6.735c0.595,1.108,1.156,2.234,1.656,3.388
				c0.458,1.057,0.933,2.158,1.19,3.284c0.402,1.761,0.142,3.617-0.433,5.31c-0.629,1.852-1.634,3.571-2.862,5.089
				c-1.168,1.443-2.576,2.747-4.206,3.651c-1.325,0.735-2.882,1.231-4.405,0.934c-0.799-0.156-1.487-0.534-2.067-1.049
				c1.411,1.329,3.093,2.349,5.151,2.86c10.894,2.707,14.484-12.122,12.863-20.048c-1.648-8.058-7.514-15.231-8.504-23.415
				c0.031-0.92,0.109-1.838,0.235-2.749c0.058-0.418,0.129-0.834,0.206-1.248c0.231-0.081,0.454-0.049,0.478,0.214
				c0.194,2.093,0.643,4.097,1.245,6.051c0.312-1.563,0.695-3.133,1.144-4.631c0.068-0.228,0.518-0.301,0.445,0.008
				c-0.499,2.122-0.315,4.402-0.924,6.487c-0.005,0.018-0.014,0.036-0.023,0.054c1.097,3.033,2.506,5.966,3.866,8.934
				c0.69,1.506,1.358,3.04,1.941,4.601c1.114-0.476,2.427-0.372,3.621-0.228c1.824,0.219,3.611,0.654,5.401,1.054
				c2.296,0.513,4.625,0.857,6.92,1.384c1.308,0.301,2.615,0.65,3.896,1.05c0.986,0.308,1.888,0.743,2.814,1.147
				c1.028-4.335,1.94-8.683,2.578-13.097c0.138,0.207,0.264,0.424,0.379,0.647c0.476,8.638-2.822,17.162-4.353,25.563
				c-1.576,8.646-2.13,17.213-1.393,25.975c0.016,0.186-0.378,0.364-0.432,0.14c-0.969-4.04-1.146-8.282-1.061-12.421
				c0.09-4.332,0.447-8.659,1.166-12.933c0.726-4.318,1.832-8.542,2.859-12.794c0.013-0.052,0.025-0.104,0.037-0.157
				c-0.01-0.001-0.02,0-0.029-0.003c-0.26-0.082-1.028,0.218-1.306,0.268c-0.669,0.119-1.336,0.242-2.003,0.372
				c-1.468,0.287-2.946,0.555-4.424,0.788c-1.9,0.299-3.832,0.234-5.746,0.115c-2.397-0.149-4.844-0.325-7.226-0.673
				c0.305,1.934,0.378,3.903,0.108,5.907c-0.286,2.12-0.784,4.337-1.59,6.418c0.071,0.003,0.14,0.017,0.203,0.049
				c4.437,2.221,8.945,4.41,12.087,8.396c2.568,3.257,3.819,7.394,2.93,11.506c-0.409,1.892-1.301,3.63-2.553,5.053
				c0.203-0.016,0.39,0.05,0.503,0.243c3.271,5.592,2.814,12.685-1.432,17.43c1.517-0.179,3.292,0.175,4.246,0.578
				c3.173,1.338,4.384,5.529,4.492,8.663c0.13,3.809-1.551,7.495-4.009,10.328c-2.586,2.981-6.034,5.196-9.626,6.771
				c-1.774,0.778-3.646,1.29-5.446,2.001c-1.964,0.775-3.348,1.799-4.85,3.252c-0.303,0.294-1.217,0.388-0.972-0.285
				c1.203-3.302,5.698-4.438,8.641-5.455c6.391-2.207,13.326-6.828,14.531-13.996c0.528-3.145-0.115-7.156-2.531-9.436
				c-1.048-0.989-3.455-1.935-5.24-1.631c-0.291,0.277-0.593,0.546-0.913,0.803c-5.494,4.404-12.799,3.725-19.381,4.287
				c-3.527,0.301-7.055,1.049-10.591,1.632c-0.044,0.027-0.091,0.051-0.143,0.069c-1.067,0.36-2.013,0.834-2.865,1.424
				c1.028-0.157,2.055-0.322,3.082-0.478c3.082-0.47,6.167-0.919,9.266-1.262c3.102-0.343,6.227-0.6,9.35-0.554
				c1.333,0.02,2.669,0.098,3.989,0.293c1.081,0.16,2.163,0.399,3.173,0.824c0.803,0.338,1.583,0.807,2.133,1.497
				c0.595,0.746,0.84,1.682,0.785,2.63c-0.091,1.555-0.979,2.923-2,4.045c-1.211,1.33-2.674,2.42-4.154,3.431
				c-1.377,0.941-2.808,1.797-4.192,2.726c-0.604,0.405-1.189,0.837-1.784,1.255c-0.759,0.533-1.507,1.081-2.251,1.634
				c-3.311,2.459-6.565,5.015-10.105,7.143c-0.527,0.317-1.064,0.626-1.61,0.924c0.858,0.413,1.718,0.791,2.559,1.137
				c4.387,1.801,8.869,2.969,13.556,3.647c0.179,0.069,0.358,0.134,0.538,0.193c1.327,0.432,2.726,0.635,4.113,0.761
				c2.744,0.249,5.495,0.135,8.245,0.113c2.01-0.016,4.02,0.008,6.03,0.038c6.247,0.298,12.564-0.009,18.772,0.097
				c4.796,0.082,9.593,0.197,14.39,0.149c4.74-0.047,9.47-0.354,14.206-0.514c9.626-0.326,19.289-0.477,28.919-0.289
				c9.624,0.188,19.28,0.901,28.873-0.262c8.331-1.01,16.799-2.221,24.623-5.397c4.702-1.909,8.903-4.606,12.594-7.922
				c1.544-0.921,3.042-1.916,4.506-2.957c0.237-0.168,0.472-0.338,0.707-0.509c-0.239,0.276-0.477,0.554-0.721,0.825
				c-3.3,3.676-7.078,6.696-11.246,9.095c1.419,0.237,2.831,0.494,4.234,0.767c7.514,1.458,14.914,3.502,22.244,5.688
				c6.445,1.922,12.854,3.963,19.303,5.873c6.618,1.96,13.302,3.667,19.989,5.376c13.658,3.49,27.353,6.846,41.142,9.781
				c7.035,1.497,14.094,2.883,21.181,4.114c6.215,1.079,12.46,1.938,18.691,2.91c5.599,0.873,11.205,1.763,16.865,2.14
				c3.991,0.266,8.046,0.295,11.995-0.356c0.594-3.396,0.982-6.829,1.21-10.268C405.522,360.709,405.487,355.168,405.214,349.638z
				 M202.683,339.491c-0.996,0.917-2.195,1.551-3.426,2.095c-1.43,0.633-2.915,1.138-4.424,1.546
				c-6.9,1.866-14.229,1.944-21.325,1.703c-6.686-0.227-13.349-0.862-20.028-1.215c-6.136-0.325-12.281-0.636-18.372-1.48
				c-6.057-0.839-12.134-2.188-17.693-4.8c-5.327-2.504-10.011-6.275-13.098-11.334c-4.08-6.686-5.512-14.832-5.932-22.543
				c-0.455-8.341,0.307-16.681,0.899-24.994c0.443-6.227,0.962-12.456,2.049-18.61c1.132-6.413,2.831-12.873,5.967-18.622
				c1.442-2.644,3.213-5.131,5.386-7.226c2.434-2.347,5.352-4.091,8.576-5.116c7.07-2.248,14.767-1.175,21.876,0.309
				c3.567,0.745,7.163,1.531,10.681,2.479c3.09,0.833,6.196,1.674,9.141,2.945c2.738,1.183,5.339,2.789,7.292,5.077
				c2.181,2.553,3.357,5.722,3.754,9.03c0.481,4.016,0.149,8.1-0.42,12.088c-0.572,4.008-1.434,7.965-2.278,11.922
				c-0.937,4.397-1.282,8.795-1.179,13.287c0.101,4.406,0.488,8.801,0.493,13.211c0,0.101-0.111,0.208-0.217,0.165
				c-2.201-0.896-4.58-1.126-6.933-1.245c-2.374-0.12-4.722-0.241-7.086-0.496c-4.638-0.5-9.196-1.483-13.796-2.23
				c-4.468-0.726-8.975-1.058-13.501-0.84c-8.292,0.399-16.321,2.689-23.736,6.366c0.391-0.058,0.781-0.12,1.173-0.174
				c6.233-0.863,12.533-1.228,18.824-1.162c6.652,0.069,13.303,0.623,19.87,1.688c3.728,0.604,7.431,1.381,11.086,2.339
				c1.04,0.119,2.079,0.259,3.117,0.43c2.275,0.375,4.503,0.945,6.75,1.448c2.134,0.478,4.253,1.025,6.348,1.655
				c4.179,1.257,8.268,2.844,12.141,4.862c4.76,2.481,8.997,5.689,12.751,9.525c1.88,1.921,3.644,3.992,5.066,6.279
				c1.181,1.9,2.202,4.051,2.344,6.316C204.951,336.206,204.185,338.108,202.683,339.491z"/>
			<path style="fill:#FFE3CB;" d="M74.872,266.216c0.071,0.003,0.14,0.017,0.203,0.049c4.437,2.221,8.945,4.41,12.087,8.396
				c2.568,3.257,3.819,7.394,2.93,11.506c-0.409,1.892-1.301,3.63-2.553,5.053c0.203-0.016,0.39,0.05,0.503,0.243
				c3.053,5.219,2.858,11.745-0.634,16.45c0.749-0.438,1.462-0.936,2.12-1.495c1.365-1.16,2.575-2.617,3.156-4.333
				c0.719-2.12,0.589-4.454-0.213-6.528c-0.811-2.095-2.262-3.901-3.987-5.32c-0.054-0.045-0.067-0.151-0.027-0.208
				c1.469-2.067,2.499-4.439,2.758-6.977c0.427-4.184-1.172-8.239-3.355-11.729c-2.288-3.658-5.243-6.861-8.314-9.871
				c-0.072-0.071-0.057-0.17,0-0.242c0.314-0.399,0.735-0.714,1.151-0.998c0.587-0.402,1.213-0.747,1.849-1.063
				c1.391-0.691,2.851-1.253,4.339-1.699c1.505-0.451,3.06-0.795,4.631-0.894c1.232-0.078,2.586-0.025,3.701,0.565
				c0.286,0.152,0.53,0.341,0.738,0.557c0.362-1.499,0.733-2.996,1.095-4.496c0.013-0.052,0.025-0.104,0.037-0.157
				c-0.01-0.001-0.02,0-0.029-0.003c-0.26-0.082-1.028,0.218-1.306,0.268c-0.669,0.119-1.336,0.242-2.003,0.372
				c-1.468,0.287-2.946,0.555-4.424,0.788c-1.9,0.299-3.832,0.234-5.746,0.115c-2.397-0.149-4.844-0.325-7.226-0.673
				c0.305,1.934,0.378,3.903,0.108,5.907C76.176,261.918,75.678,264.134,74.872,266.216z"/>
			<path style="fill:#FFE3CB;" d="M64.096,213.287c-0.425,0.073-0.848,0.155-1.269,0.242c0.049,0.113,0.096,0.227,0.14,0.342
				c0.055-0.032,0.108-0.066,0.164-0.097C63.447,213.597,63.769,213.436,64.096,213.287z"/>
			<path style="fill:#FFE3CB;" d="M91.146,242.468c-3.456-0.074-6.911-0.884-10.142-2.081c-1.416-0.525-2.808-1.133-4.127-1.869
				c-0.826-0.461-1.616-0.967-2.304-1.621c-0.619-0.587-1.143-1.271-1.56-2.014c-0.848-1.513-1.259-3.22-1.674-4.889
				c-0.234-0.941-0.427-1.922-0.775-2.828c-0.387-1.006-0.836-1.988-1.354-2.934c-0.957-1.749-2.149-3.352-3.502-4.815
				c-0.652-0.705-1.339-1.376-2.043-2.028c0.126,2.069-0.098,4.142-0.277,6.201c-0.415,4.771-0.129,9.657,1.636,14.151
				c0.921,2.345,2.209,4.477,3.535,6.609c0.96,1.542,1.831,3.141,2.62,4.777c1.697,3.519,3.113,7.309,3.563,11.214
				c0.291-2.495,0.216-4.944-0.195-6.95c-1.648-8.058-7.514-15.231-8.504-23.415c0.031-0.92,0.109-1.838,0.235-2.749
				c0.058-0.418,0.129-0.834,0.206-1.248c0.231-0.081,0.454-0.049,0.478,0.214c0.194,2.093,0.643,4.097,1.245,6.051
				c0.312-1.563,0.695-3.133,1.144-4.631c0.068-0.228,0.518-0.301,0.445,0.008c-0.499,2.122-0.315,4.402-0.924,6.487
				c-0.005,0.018-0.014,0.036-0.023,0.054c1.097,3.033,2.506,5.966,3.866,8.934c0.69,1.506,1.358,3.04,1.941,4.601
				c1.114-0.476,2.427-0.372,3.621-0.228c1.824,0.219,3.611,0.654,5.401,1.054c2.296,0.513,4.625,0.857,6.92,1.384
				c1.308,0.301,2.615,0.65,3.896,1.05c0.891,0.278,1.714,0.66,2.547,1.029c0.048-0.092,0.098-0.184,0.146-0.276
				c0.136-0.265,0.269-0.531,0.399-0.799c0.851-3.675,1.608-7.362,2.177-11.095C97.501,241.99,94.168,242.533,91.146,242.468z"/>
			<path style="fill:#FFE3CB;" d="M81.713,335.233c-1.774,0.778-3.646,1.29-5.446,2.001c-1.538,0.607-2.721,1.371-3.884,2.37
				c0.464-0.063,0.927-0.129,1.389-0.202c4.24-0.671,8.42-1.712,12.715-1.991c2.979-0.194,6.18-0.145,8.837-1.717
				c1.234-0.73,2.218-1.788,2.946-3.017c0.462-0.779,0.832-1.621,1.165-2.462c0.351-0.886,0.628-1.801,0.814-2.735
				c0.339-1.703,0.357-3.468,0.031-5.175c-0.313-1.638-0.927-3.205-1.754-4.65c-1.273-2.224-3.009-4.151-4.967-5.805
				c1.196,1.846,1.72,4.28,1.789,6.284c0.13,3.809-1.551,7.495-4.009,10.328C88.753,331.443,85.305,333.658,81.713,335.233z"/>
			<path style="fill:#FFE3CB;" d="M85.846,309.683c-0.291,0.277-0.593,0.546-0.913,0.803c-0.576,0.462-1.174,0.865-1.787,1.223
				c0.372,0.025,0.743,0.071,1.112,0.156c0.877,0.204,1.695,0.608,2.412,1.149c0.712,0.536,1.376,1.125,1.912,1.841
				c0.943,1.26,1.4,2.814,1.371,4.382c-0.03,1.61-0.534,3.189-1.302,4.595c-0.656,1.2-1.48,2.299-2.487,3.225
				c-0.967,0.889-2.055,1.639-3.17,2.329c-2.282,1.414-4.734,2.581-6.868,4.224c-0.976,0.751-1.884,1.618-2.562,2.653
				c-0.204,0.311-0.38,0.636-0.535,0.971c1.856-1.19,4.249-1.862,6.058-2.487c6.391-2.207,13.326-6.828,14.531-13.996
				c0.528-3.145-0.115-7.156-2.531-9.436C90.038,310.325,87.63,309.379,85.846,309.683z"/>
			<path style="fill:#FFE3CB;" d="M251.017,271.785c-0.274-0.153-0.547-0.307-0.819-0.466c-1.002-0.584-1.988-1.191-2.965-1.813
				c1.685,2.846,3.208,5.79,4.518,8.827C251.581,276.143,251.328,273.96,251.017,271.785z"/>
			<path style="fill:#FFE3CB;" d="M176.214,228.583c1.364,2.45,2.06,5.204,2.337,7.98c0.665,6.661-0.947,13.18-1.88,19.726
				c-1.052,7.378-1.399,14.918-0.462,22.327c0.921,7.278,3.168,14.437,7.212,20.601c3.647,5.558,8.606,9.996,14.359,13.283
				c5.61,3.205,11.834,5.45,18.222,6.452c6.168,0.967,12.721,0.752,18.54-1.688c2.839-1.191,5.441-2.92,7.605-5.113
				c2.609-2.645,4.704-5.833,6.244-9.206c2.78-6.089,3.673-12.822,3.597-19.475c-0.026-0.064-0.051-0.129-0.077-0.193
				c-0.12-0.292-0.242-0.583-0.365-0.874c-0.21-0.94-0.442-1.873-0.7-2.799c-2.218-5.582-5.559-10.802-9.104-15.556
				c-4.281-5.743-9.31-10.902-14.939-15.331c-11.797-9.282-25.9-15.663-40.404-19.341c-3.692-0.936-7.424-1.711-11.181-2.338
				C175.577,227.533,175.914,228.045,176.214,228.583z"/>
		</g>
		<path style="fill:#D09670;" d="M177.882,306.61c-8.658-2.588-17.134-5.868-25.948-7.914c-9.437-2.19-19.332-2.29-28.975-1.857
			c-5.664,0.254-11.334,0.889-16.838,2.287c-0.213,0.054-0.343,0.482-0.042,0.423c9.959-1.946,20.057-1.909,30.153-1.431
			c4.623,0.219,9.17,0.673,13.694,1.682c4.328,0.966,8.563,2.284,12.777,3.656c4.781,1.557,9.533,3.207,14.401,4.477
			C177.788,308.112,178.661,306.843,177.882,306.61z"/>
	</g>
	<g>
		<g>
			<path style="fill:#6A4E2F;" d="M133.086,164.198l73.26-153.93c0,0,10.905-3.772,18.925,8.252l-77.813,165.035L133.086,164.198z"
				/>
			<g>
				<path style="fill:#FFFFFF;" d="M206.491,17.611c3.051-0.679,6.198-0.911,9.319-0.815c3.057,0.094,6.11,0.498,9.088,1.192
					c-7.981-11.366-18.552-7.72-18.552-7.72l-4.115,8.646C203.612,18.362,205.044,17.933,206.491,17.611z"/>
				<path style="fill:#FFFFFF;" d="M197.711,31.936c3.111-1.45,6.417-2.518,9.785-3.174c2.492-0.485,5.056-0.757,7.584-0.964
					c1.96-0.161,3.939-0.254,5.91-0.198l2.548-5.404c-4.967-0.959-10.145-0.769-15.078,0.297c-3.284,0.71-6.494,1.812-9.506,3.307
					l-3.455,7.259C196.226,32.658,196.967,32.284,197.711,31.936z"/>
				<path style="fill:#FFFFFF;" d="M188.236,52.652c5.182-2.751,10.617-5.177,16.332-6.579c2.685-0.659,5.466-1.08,8.239-1.118
					l3.494-7.411c-0.258-0.001-0.515-0.005-0.772-0.001c-6.102,0.1-12.075,1.679-17.78,3.751c-2.579,0.937-5.113,1.983-7.631,3.069
					l-4.675,9.823C186.369,53.665,187.298,53.15,188.236,52.652z"/>
				<path style="fill:#FFFFFF;" d="M177.576,71.784c2.699-1.547,5.584-2.765,8.534-3.741c3.072-1.016,6.233-1.769,9.428-2.274
					c2.577-0.408,5.183-0.659,7.793-0.715l4.051-8.592c-0.166,0.006-0.332,0.011-0.498,0.018
					c-5.826,0.263-11.674,1.333-17.182,3.261c-3.099,1.084-6.267,2.489-9.008,4.425l-3.824,8.036
					C177.104,72.06,177.339,71.92,177.576,71.784z"/>
				<path style="fill:#FFFFFF;" d="M177.113,85.532c3.28-1.039,6.651-1.797,10.059-2.266c2.569-0.353,5.183-0.548,7.781-0.442
					l3.29-6.977c-3.015-0.191-6.051-0.05-9.045,0.34c-3.14,0.409-6.249,1.102-9.262,2.076c-2.582,0.835-5.104,1.884-7.476,3.206
					l-3.575,7.511C171.487,87.536,174.281,86.43,177.113,85.532z"/>
				<path style="fill:#FFFFFF;" d="M168.258,105.344c1.464-0.41,2.942-0.766,4.409-1.163c1.333-0.361,2.672-0.703,4.019-1.01
					c3.05-0.693,6.162-1.23,9.294-1.332c0.002,0,0.004,0,0.007,0l4.637-9.835c-2.731,0.123-5.456,0.396-8.155,0.823
					c-3.339,0.529-6.649,1.276-9.871,2.303c-2.886,0.92-5.718,2.07-8.346,3.584l-4.59,9.644
					C162.441,107.128,165.333,106.163,168.258,105.344z"/>
				<path style="fill:#FFFFFF;" d="M151.108,127.731c2.748-1.476,5.636-2.682,8.575-3.722c3.028-1.071,6.116-1.966,9.222-2.779
					c2.977-0.779,5.974-1.481,8.969-2.186l3.475-7.37c-0.437,0.081-0.873,0.166-1.307,0.257c-3.378,0.707-6.693,1.691-9.955,2.812
					c-1.514,0.52-3.003,1.114-4.522,1.618c-1.325,0.441-2.649,0.884-3.964,1.352c-2.725,0.969-5.423,2.041-7.995,3.369l-3.402,7.149
					C150.503,128.062,150.805,127.894,151.108,127.731z"/>
				<path style="fill:#FFFFFF;" d="M146.076,144.223c2.933-1.014,5.8-2.211,8.751-3.175c1.49-0.487,3.009-0.886,4.516-1.315
					c1.657-0.471,3.321-0.916,4.986-1.356c1.687-0.446,3.379-0.888,5.066-1.347l4.005-8.494c-5.574,1.388-11.13,2.849-16.637,4.48
					c-3.499,1.037-6.979,2.144-10.427,3.342l-4.33,9.099C143.383,145.111,144.741,144.685,146.076,144.223z"/>
			</g>
			<path style="fill:#9C9D9C;" d="M221.844,14.424c-5.99,12.005-12.301,23.847-18.663,35.659
				c-7.085,13.156-14.231,26.28-21.021,39.592c-6.832,13.393-14.045,26.586-21.348,39.725
				c-7.303,13.137-14.698,26.224-21.902,39.415c-0.339,0.62-0.675,1.242-1.013,1.863l9.562,12.877L225.271,18.52
				C224.171,16.871,223.017,15.529,221.844,14.424z"/>
		</g>
		<g>
			<path style="fill:#624122;" d="M71.162,50.439c-7.039,2.729-11.013,8.372-12.57,13.866c-5.583-1.197-12.43-0.327-18.139,4.614
				c-11.026,9.545-4.407,25.431,7.464,30.501c10.686,4.564,22.847,6.123,34.939,6.878c0.349,0.022,0.697,0.043,1.047,0.063
				c0.146-0.318,0.291-0.636,0.434-0.955c4.995-11.038,9.31-22.513,10.281-34.093C95.696,58.45,84.758,45.164,71.162,50.439z"/>
			<path style="fill:#78502E;" d="M88.114,53.805c3.245,3.974,5.121,9.29,5.184,14.409c0.104,8.329-3.666,16.648-9.05,22.878
				c-2.752,3.185-6.054,5.995-9.909,7.753c-3.722,1.695-7.778,2.485-11.861,2.486c-4.073,0.001-8.288-0.504-12.086-2.034
				c-3.83-1.542-7.263-3.952-10.159-6.883c-2.053-2.076-3.712-4.47-4.805-7.166c1.616,6.035,6.349,11.55,12.488,14.172
				c10.686,4.564,22.847,6.123,34.939,6.878c0.349,0.022,0.697,0.043,1.047,0.063c0.146-0.318,0.291-0.636,0.434-0.955
				c4.995-11.038,9.31-22.513,10.281-34.093C95.169,64.744,92.585,58.067,88.114,53.805z"/>
			<path style="opacity:0.29;fill:#9E785C;" d="M49.12,70.228c-1.174-0.406-2.496-0.475-3.795-0.158
				c-1.276,0.314-2.512,1.121-3.562,1.886c-2.011,1.465-3.186,3.613-3.828,5.971c-0.602,2.211-0.154,4.727,0.9,6.731
				c1.258,2.391,4.026,2.829,6.354,1.933c2.368-0.911,4.353-3.088,5.716-5.159c1.157-1.758,2.311-4.262,2.076-6.42
				C52.72,72.614,51.14,70.925,49.12,70.228z"/>
			<path style="opacity:0.29;fill:#9E785C;" d="M45.056,89.448c-0.337,0.185-0.628,0.474-0.826,0.839
				c-0.194,0.358-0.265,0.81-0.308,1.21c-0.082,0.767,0.167,1.483,0.575,2.122c0.383,0.598,1.053,1.019,1.733,1.194
				c0.811,0.209,1.487-0.336,1.766-1.057c0.283-0.734,0.197-1.642,0.005-2.386c-0.163-0.632-0.498-1.417-1.042-1.813
				C46.353,89.118,45.636,89.129,45.056,89.448z"/>
		</g>
		<g>
			<g>
				<path style="fill:#EAE8E4;" d="M172.959,146.546c-1.433-0.913-2.708-2.07-3.865-3.309c-0.853-0.913-1.656-1.877-2.331-2.931
					c-0.661-1.031-1.27-2.157-1.605-3.347c-0.07-0.213-0.134-0.427-0.186-0.645c-0.006-0.024-0.007-0.047-0.012-0.07
					c0.013,0.008,0.027,0.015,0.04,0.022c-0.109-0.652-0.087-1.316,0.165-1.889c-0.073-0.038-0.145-0.079-0.218-0.116
					c0.22-0.171,0.433-0.351,0.648-0.528c0.088-0.091,0.182-0.18,0.291-0.26c0.02-0.015,0.04-0.019,0.059-0.027
					c0.317-0.273,0.628-0.556,0.928-0.855c0.966-0.96,1.837-2.012,2.633-3.115c1.635-2.268,2.865-4.881,3.741-7.531
					c1.796-5.435,2.157-11.313,1.296-16.957c-0.874-5.725-3.129-11.156-6.798-15.659c-4.128-5.067-10.11-9.002-16.589-10.215
					c-1.409-0.264-2.809-0.375-4.202-0.376c-0.761-2.346-2.865-3.508-5.12-4.215c-2.734-0.857-5.637-1.103-8.46-1.516
					c-1.281-0.188-2.569-0.39-3.818-0.739c-1.297-0.363-2.373-0.944-3.388-1.865c-2.782-2.527-3.357-6.813-1.22-9.932
					c0.979-1.429,2.48-2.39,3.926-3.287c1.563-0.969,3.13-1.915,4.445-3.217c0.312-0.309,0.337-0.815-0.11-0.989
					c-2.328-0.904-4.927-0.771-7.322-0.217c-2.742,0.634-5.356,1.806-7.796,3.191c-4.969,2.82-9.325,6.504-12.785,11.061
					c-2.053,2.705-3.749,5.666-5.077,8.79c-0.664,1.562-1.205,3.18-1.957,4.703c-0.704,1.425-1.608,2.663-2.701,3.813
					c-3.916,4.124-9.11,6.959-14.396,8.925c-3.338,1.241-6.83,2.167-10.371,2.73c-3.038-0.042-6.078,0.02-9.107,0.233
					c-3.95,0.278-8.034,0.809-11.962,1.84c-2.793,0.964-5.529,2.088-8.18,3.39c-0.01,0.018-0.018,0.037-0.028,0.055
					c-0.951,1.708-2.339,3.067-3.923,4.191c-1.826,1.297-3.66,2.812-5.839,3.464c0.043,0.076,0.09,0.149,0.13,0.227
					c0.388,0.773,0.638,1.623,0.61,2.494c-0.03,0.945-0.373,1.844-0.881,2.634c-0.527,0.819-1.312,1.509-2.111,2.055
					c-0.626,0.428-1.317,0.77-2.046,0.984c-0.086,0.276-0.194,0.547-0.344,0.805c-0.948,1.634-2.783,2.601-4.481,3.267
					c-1.229,0.482-2.516,0.837-3.819,1.078c0.024,0.26,0.042,0.522,0.035,0.784c-0.031,1.067-0.519,1.933-1.167,2.754
					c-0.451,0.572-0.968,1.077-1.566,1.487c-0.408,0.372-0.825,0.736-1.243,1.098c0.145-0.209,0.3-0.412,0.451-0.617
					c-0.479,0.27-0.963,0.529-1.433,0.815c-0.305,0.185-0.693,0.408-0.979,0.694c-0.007,0.036-0.015,0.071-0.021,0.107
					c-0.182,1.097,0.624,2.028,1.147,2.92c1.033,1.764,1.861,3.603,1.722,5.693c-0.116,1.747-0.761,3.471-1.848,4.846
					c-0.354,0.62-0.825,1.224-1.504,1.394c-0.196,0.122-0.397,0.235-0.605,0.351c-0.468,0.261-0.676,0.701-0.729,1.182
					c1.026,2.703,2.546,5.325,4.645,7.265c1.604,1.867,3.534,3.407,5.596,4.747c4.364,2.836,9.292,4.763,14.268,6.222
					c5.079,1.489,10.282,2.499,15.474,3.5c5.589,1.078,11.161,2.152,16.808,2.891c11.923,1.56,23.96,2.065,35.977,2.117
					c5.981,0.026,11.976,0.03,17.947-0.351c5.978-0.382,11.933-1.105,17.835-2.12c5.989-1.03,11.925-2.359,17.796-3.927
					c3.475-0.928,7.33-1.624,10.607-3.295c0.053,0.015,0.116,0.021,0.201,0.001c5.136-1.158,6.796-7.272,7.05-11.854
					c0.07-1.259,0.026-2.526-0.141-3.775C174.376,147.359,173.64,146.98,172.959,146.546z"/>
				<g>
					<path style="fill:#FFFFFF;" d="M78.674,95.262c5.552-1.69,10.976-4.241,15.438-7.999c2.34-1.971,4.358-4.18,5.66-6.976
						c0.089-0.192,0.17-0.387,0.255-0.581c-0.615,2.826-0.642,5.752-0.03,8.563c0.7,1.5,1.282,3.082,2.01,4.567
						c0.285,0.377,0.581,0.745,0.887,1.102c0.612,0.658,1.262,1.281,1.939,1.873c-2.161-2.955-3.693-6.428-4.095-10.083
						c-0.437-3.969,0.522-7.866,2.079-11.496c0.778-1.812,1.686-3.566,2.607-5.31c2.812-4.063,6.366-7.507,10.496-10.264
						c2.339-1.562,4.836-2.922,7.485-3.883c1.44-0.522,2.995-0.945,4.556-1.079c-0.426,0.2-0.846,0.413-1.256,0.638
						c-0.582,0.319-1.148,0.661-1.7,1.021c-5.809,2.601-11.58,5.838-15.452,11.008c-2.032,2.712-3.35,5.914-3.609,9.307
						c-0.275,3.602,0.538,7.282,2.297,10.433c1.01,1.81,2.396,3.442,4.041,4.723c1.088,0.672,2.241,1.226,3.445,1.619
						c0.582,0.089,1.167,0.155,1.758,0.188c-3.047-1.39-5.617-3.459-7.41-6.319c-1.81-2.888-2.765-6.367-2.762-9.772
						c0.003-3.225,1.012-6.318,2.762-9.014c1.757-2.706,4.174-4.942,6.736-6.873c2.003-1.51,4.131-2.816,6.349-3.962
						c-0.73,0.587-1.426,1.22-2.078,1.907c-1.938,2.041-3.676,4.587-4.086,7.429c-0.41,2.85,1.092,5.264,2.937,7.28
						c0.998,1.09,2.148,1.914,3.511,2.487c0.087,0.037,0.177,0.067,0.265,0.102c0.861,0.203,1.734,0.362,2.616,0.474
						c0.365,0.04,0.731,0.074,1.098,0.104c-1.881-0.943-3.955-1.491-5.505-2.999c-0.869-0.846-1.646-1.858-2.289-2.884
						c-0.655-1.046-1.193-2.179-1.307-3.424c-0.23-2.519,1.176-5.039,2.69-6.944c1.426-1.795,3.155-3.302,5.077-4.543
						c0.928-0.599,1.892-1.152,2.908-1.588c0.307-0.132,0.649-0.273,1.004-0.389c0.259,0.025,0.517,0.059,0.773,0.106
						c0.254,0.046,0.503,0.108,0.751,0.176c-2.252,1.853-5.099,2.926-7.071,5.141c-2.517,2.827-3.089,7.057-1.182,10.365
						c0.862,1.494,2.234,2.81,3.801,3.544c1.1,0.515,2.289,0.793,3.478,1.015c2.85,0.532,5.752,0.746,8.589,1.358
						c2.13,0.459,5.182,1.237,6.304,3.37c-4.232,0.23-8.407,1.366-12.584,2.296c-0.983,0.299-1.988,0.538-2.977,0.812
						c-1.117,0.31-2.205,0.711-3.316,1.004c-0.22,0.087-0.44,0.173-0.662,0.255c7.273-0.133,14.183-3.282,21.502-2.921
						c6.433,0.317,12.78,3.764,17.188,8.362c3.957,4.128,6.608,9.28,7.86,14.843c1.192,5.299,1.214,10.95-0.034,16.242
						c-1.218,5.161-3.667,10.12-7.533,13.811c-0.096,0.092-0.191,0.181-0.285,0.272c-0.113,0.018-0.243,0.096-0.317,0.184
						c-0.852-0.403-1.719-0.773-2.595-1.108c-2.109-0.809-4.275-1.408-6.474-1.865c1.387-1.126,2.619-2.487,3.702-3.883
						c1.358-1.752,2.489-3.656,3.429-5.662c1.886-4.025,2.913-8.46,3.015-12.904c0.201-8.854-3.855-18.617-12.188-22.628
						c-2.638-1.27-5.607-2.047-8.544-1.932c-1.608,0.063-3.195,0.328-4.775,0.619c-1.722,0.317-3.468,0.713-5.217,0.834
						c-0.152,0.01-0.32,0.281-0.096,0.289c1.4,0.049,2.773,0.013,4.165-0.143c1.353-0.151,2.704-0.331,4.064-0.409
						c2.719-0.156,5.344,0.299,7.874,1.297c4.239,1.672,7.477,4.835,9.754,8.735c4.28,7.331,4.653,16.797,1.798,24.692
						c-0.809,2.236-1.899,4.359-3.255,6.312c-1.219,1.757-2.661,3.252-4.22,4.681c-1.31-0.259-2.631-0.47-3.959-0.641
						c-3.989-0.514-8.011-0.688-12.025-0.873c-3.958-0.183-7.915-0.401-11.869-0.66c-4.004-0.263-7.991-0.643-11.923-1.308
						c2.562-0.558,5.091-1.49,7.446-2.559c2.948-1.339,5.715-3.078,8.084-5.294c2.408-2.253,4.286-5.062,5.512-8.119
						c1.194-2.978,1.715-6.244,0.801-9.376c-0.924-3.166-3.161-5.671-6.274-6.662c0.54-0.457,1.055-0.941,1.526-1.471
						c0,0.075,0.049,0.133,0.176,0.113c3.059-0.497,6.057-0.836,9.046,0.193c2.992,1.031,5.51,3.214,7.164,5.886
						c1.483,2.397,2.25,5.228,2.666,7.995c0.418,2.779,0.347,5.656-0.257,8.403c-0.583,2.653-1.703,5.047-3.35,7.152
						c0.211-0.132,0.418-0.269,0.624-0.409c0.504-0.422,0.993-0.863,1.479-1.309c2.475-3.858,3.367-8.769,3.039-13.25
						c-0.217-2.961-0.921-5.967-2.325-8.599c-1.573-2.949-4.068-5.316-7.149-6.623c-1.679-0.713-3.497-1.004-5.316-0.859
						c-1.898,0.151-3.753,0.638-5.603,1.067c-0.001,0-0.001,0.001-0.002,0.001c0.474-0.557,0.915-1.146,1.301-1.787
						c0.417-0.692,0.742-1.414,0.992-2.182c0.032-0.097,0.017-0.183-0.019-0.256c-0.417,0.638-0.859,1.258-1.377,1.804
						c-0.371,0.391-0.773,0.751-1.175,1.11c-3.471,4.399-9.375,6.193-14.87,6.912c-3.987,0.522-8.036,0.394-12.036,0.1
						c-5.144-0.378-10.256-1.102-15.366-1.783c-4.712-0.628-9.437-1.219-14.188-1.461C76.568,95.867,77.63,95.58,78.674,95.262z"/>
					<path style="fill:#FFFFFF;" d="M60.608,97.741c4.126-0.318,8.271-0.334,12.406-0.207c5.109,0.156,10.188,0.761,15.251,1.432
						c0.543,0.072,1.087,0.145,1.63,0.218c-2.919,1.609-6.193,2.216-9.498,2.361c-3.419,0.149-6.835-0.117-10.239-0.402
						c-3.687-0.309-7.384-0.559-11.076-0.798c-4.031-0.26-8.107-0.279-12.082,0.531c-1.217,0.248-2.443,0.503-3.639,0.831
						C48.722,99.225,54.79,98.189,60.608,97.741z"/>
					<path style="fill:#FFFFFF;" d="M33.282,109.029c0.224-0.089,0.446-0.18,0.669-0.264c0.535-0.2,1.07-0.406,1.584-0.656
						c1.032-0.502,1.968-1.186,2.871-1.888c0.844-0.656,1.694-1.318,2.467-2.058c0.415-0.397,0.894-0.889,1.262-1.426
						c1.44-0.375,2.928-0.607,4.336-0.838c1.963-0.321,3.917-0.546,5.908-0.586c2.004-0.04,4.012,0.049,6.012,0.182
						c3.706,0.246,7.413,0.531,11.114,0.839c3.375,0.28,6.775,0.593,10.163,0.397c3.682-0.213,7.382-1.004,10.542-2.986
						c0.202-0.127,0.234-0.352,0.155-0.499c4.414,0.595,8.829,1.198,13.272,1.532c2.779,0.209,5.571,0.328,8.357,0.244
						c-0.823,0.557-1.639,1.124-2.492,1.639c-1.214,0.734-2.483,1.393-3.771,1.987c-2.632,1.214-5.393,2.14-8.204,2.839
						c-5.804,1.442-11.809,1.965-17.779,1.945c-6.724-0.021-13.328-0.982-19.977-1.886c-6.152-0.836-12.402-1.382-18.585-0.546
						c-2.601,0.352-5.62,0.989-8.093,2.356c-0.025-0.018-0.05-0.036-0.078-0.05C33.105,109.215,33.193,109.121,33.282,109.029z"/>
					<path style="fill:#FFFFFF;" d="M33.204,113.728c0.315-0.783,0.542-1.661,0.559-2.507c0.006-0.279-0.038-0.682-0.155-1.053
						c2.099-1.115,4.614-1.65,6.895-1.964c5.985-0.824,12.068-0.203,18.02,0.591c6.657,0.888,13.266,1.914,19.997,1.994
						c5.927,0.07,11.908-0.404,17.696-1.718c5.579-1.267,11.15-3.331,15.656-6.94c0.452-0.362,0.867-0.736,1.26-1.152
						c0.984-0.051,1.967-0.128,2.948-0.24c2.425-0.279,5.008-0.778,7.474-1.607c0.005,0.012,0.004,0.024,0.011,0.036
						c0.894,1.512,0.398,3.583-0.187,5.117c-0.604,1.586-1.599,2.99-2.817,4.165c-2.536,2.447-5.913,3.893-9.177,5.084
						c-3.933,1.435-8.054,2.376-12.225,2.761c-4.356,0.402-8.65,0.043-12.929-0.827c-5.014-1.019-9.874-2.65-14.876-3.715
						c-0.315-0.067-0.783,0.458-0.365,0.598c8.769,2.936,17.89,5.955,27.259,5.289c4.496-0.319,8.919-1.321,13.154-2.852
						c3.526-1.274,7.061-2.841,9.83-5.432c1.497-1.401,2.69-3.111,3.348-5.06c0.593-1.757,0.824-3.862-0.418-5.382
						c2.101-0.76,4.096-1.771,5.814-3.106c2.434,1.237,4.344,3.376,5.241,5.97c0.999,2.889,0.753,5.904-0.267,8.745
						c-2.092,5.83-6.564,10.216-12.021,12.989c-1.53,0.777-3.117,1.441-4.734,2.012c-1.632,0.577-3.304,1.028-4.953,1.551
						c-3.229-0.619-6.418-1.445-9.544-2.579c-0.965-0.35-1.924-0.717-2.873-1.107c-0.374-0.154-1.034,0.569-0.595,0.778
						c6.904,3.298,14.511,4.677,22.074,5.423c1.717,0.17,3.436,0.308,5.156,0.432c0.247,0.633,0.429,1.124-0.122,1.68
						c-0.653,0.658-1.612,1.04-2.467,1.361c-2.431,0.916-5.032,1.274-7.614,1.41c-2.319,0.122-4.635-0.042-6.943-0.254
						c-0.045-0.004-0.093,0.014-0.138,0.044c-1.707-0.608-3.405-1.243-5.093-1.896c-5.502-2.129-10.941-4.412-16.476-6.456
						c-5.321-1.965-10.619-3.993-15.998-5.796c-10.819-3.626-22.412-6.52-33.903-5.337c-2.415,0.248-4.846,0.668-7.218,1.298
						C32.228,115.428,32.834,114.649,33.204,113.728z"/>
					<path style="fill:#FFFFFF;" d="M55.165,167.196c-5.081-0.993-10.184-1.896-15.208-3.155c-5.041-1.263-10.038-2.88-14.635-5.335
						c-2.26-1.207-4.467-2.59-6.42-4.253c-1.027-0.874-2.001-1.81-2.844-2.865c-0.723-0.905-1.318-1.906-2.026-2.823
						c-0.194-0.251-0.392-0.503-0.594-0.752c-0.366-0.763-0.691-1.544-0.974-2.337c-0.006-0.016-0.011-0.032-0.017-0.048
						c0.879-0.147,1.656-0.864,2.185-1.535c0.823-1.045,1.403-2.266,1.817-3.525c0.776-2.363,0.626-5.12-0.479-7.359
						c-0.526-1.066-1.313-1.921-2.344-2.388c0.023-0.041,0.048-0.08,0.071-0.121c0.59-0.245,1.247-0.369,1.889-0.408
						c1.534-0.092,3.067,0.124,4.554,0.492c4.077,1.008,7.773,3.562,10.927,6.249c3.832,3.264,7.302,6.977,10.794,10.594
						c3.633,3.762,7.208,7.576,10.798,11.378c3.45,3.654,7.094,7.566,11.672,9.799C61.265,168.33,58.212,167.792,55.165,167.196z"/>
					<path style="fill:#FFFFFF;" d="M173.607,153.453c-0.157,0.013-0.329,0.079-0.477,0.21c-1.803,1.606-4.129,2.559-6.429,3.196
						c-2.482,0.687-5.046,1.093-7.595,1.436c-6.834,0.919-13.783,0.97-20.63,0.153c-12.841-1.533-24.764-6.509-36.239-12.248
						c-3.035-1.517-6.056-3.078-8.96-4.835c-2.924-1.769-5.864-3.636-8.376-5.969c-0.18-0.167-0.566,0.191-0.361,0.386
						c2.243,2.126,4.581,4.082,7.116,5.852c2.561,1.787,5.306,3.345,8.058,4.815c5.669,3.028,11.451,5.855,17.453,8.164
						c6.16,2.369,12.53,4.16,19.073,5.074c7.005,0.978,14.091,1.053,21.118,0.253c2.725-0.31,5.471-0.698,8.134-1.366
						c2.489-0.625,5.146-1.478,7.166-3.123c0.266-0.217,0.513-0.448,0.748-0.69c-0.086,0.467-0.183,0.93-0.301,1.385
						c-0.214,0.83-0.483,1.678-0.838,2.483c-0.234-0.008-0.495,0.075-0.663,0.259c-3.113,3.424-7.615,4.442-11.914,5.565
						c-5.618,1.468-11.23,2.886-16.938,3.967c-5.794,1.097-11.642,1.924-17.519,2.42c-5.882,0.496-11.775,0.578-17.675,0.6
						c-11.715,0.045-23.45-0.292-35.103-1.563c-2.462-0.268-4.913-0.592-7.358-0.958c0.096-0.087,0.135-0.206,0.012-0.286
						c-4.143-2.678-7.703-6.037-11.017-9.67c-3.649-4.001-7.232-8.061-10.933-12.014c-3.526-3.766-7.042-7.635-10.981-10.978
						c-3.275-2.781-7.097-5.365-11.349-6.322c-1.421-0.32-3.383-0.568-5.157-0.32c0.647-0.439,1.266-0.92,1.836-1.455
						c0.619-0.581,1.208-1.229,1.634-1.968c0.26-0.452,0.556-1.098,0.589-1.695c5.557-0.712,11.111,0.835,16.068,3.484
						c6.098,3.257,11.4,7.834,16.564,12.377c5.295,4.658,10.632,9.267,16.288,13.485c5.981,4.461,12.295,8.514,19.11,11.585
						c6.839,3.083,14.178,5.055,21.697,5.303c0.959,0.032,1.915,0.031,2.874-0.012c0.184-0.008,0.368-0.169,0.455-0.336
						c-0.103-0.012-0.207-0.022-0.31-0.035c-1.353-0.168-2.707-0.353-4.058-0.549c-2.46-0.187-4.905-0.506-7.335-1.019
						c-3.654-0.773-7.223-1.918-10.672-3.35c-6.938-2.881-13.332-6.938-19.352-11.4c-5.746-4.259-11.229-8.87-16.59-13.601
						c-5.178-4.571-10.422-9.189-16.445-12.631c-5.41-3.093-11.65-5.178-17.886-3.988c0.359-0.083,0.715-0.196,1.073-0.322
						c0.926-0.324,1.819-0.749,2.71-1.157c1.438-0.658,3.064-1.562,4.042-2.875c6.627-0.573,13.296,0.956,19.427,3.439
						c6.844,2.772,13.106,6.813,19.192,10.948c3.221,2.188,6.429,4.396,9.577,6.687c3.365,2.448,6.691,4.951,10.067,7.384
						c6.656,4.798,13.505,9.274,21.125,12.398c3.578,1.467,7.261,2.635,10.994,3.638c3.431,0.921,7.034,1.751,10.612,1.618
						c-0.115-0.014-0.229-0.024-0.344-0.039c-1.277-0.171-2.526-0.46-3.786-0.723c-1.139-0.239-2.279-0.472-3.407-0.76
						c-1.405-0.358-2.824-0.803-4.125-1.463c-2.46-0.716-4.898-1.519-7.283-2.435c-3.803-1.46-7.488-3.22-11-5.286
						c-3.559-2.094-6.965-4.446-10.31-6.863c-3.399-2.456-6.733-5.001-10.111-7.485c-3.17-2.331-6.395-4.581-9.64-6.806
						c-6.07-4.163-12.269-8.214-19.03-11.178c-6.677-2.927-13.886-4.516-21.18-3.611c-0.154,0.019-0.306,0.043-0.46,0.063
						c0.028-0.053,0.05-0.109,0.064-0.165c2.795-1.022,5.738-1.675,8.654-2.064c11.225-1.501,22.579,1.228,33.209,4.64
						c10.681,3.429,21.146,7.518,31.603,11.566c9.354,3.621,19.274,7.206,29.412,7.511c1.117-0.047,2.235-0.1,3.348-0.208
						c1.065-0.103,2.111-0.285,3.163-0.476c0.674-0.122,1.345-0.281,1.994-0.501c0.095-0.032,0.22-0.071,0.356-0.119
						c-0.031-0.006-0.061-0.014-0.105-0.01c-5.95,0.583-11.824,0.235-17.668-1.035c-3.237-0.703-6.417-1.63-9.558-2.679
						c3.13,0.477,6.412,0.349,9.462-0.295c1.056-0.223,2.098-0.53,3.104-0.92c1.055-0.41,2.193-0.942,2.957-1.805
						c0.49-0.553,0.771-1.333,0.615-2.012c5.463,0.367,10.936,0.595,16.394,1.037c3.332,0.27,6.725,0.69,10.025,1.454
						c0.898,0.612,1.784,1.24,2.544,2.029c1,1.038,1.989,2.489,1.961,3.991c-0.031,1.658-1.364,2.778-2.634,3.639
						c-1.451,0.984-3.101,1.679-4.774,2.187c-3.444,1.047-7.063,1.45-10.646,1.629c-3.692,0.184-7.407,0.178-11.083-0.241
						c-3.987-0.453-8.098-1.306-11.608-3.33c0.041,0.038,0.081,0.079,0.122,0.117c0.646,0.59,1.318,1.159,2.016,1.693
						c2.477,1.17,5.168,1.892,7.86,2.357c3.893,0.673,7.897,0.828,11.841,0.689c3.839-0.135,7.735-0.493,11.426-1.611
						c1.856-0.562,3.656-1.306,5.288-2.361c1.534-0.992,3.116-2.319,3.425-4.221c0.289-1.779-0.704-3.464-1.885-4.706
						c-0.38-0.4-0.788-0.794-1.217-1.167c2.022,0.601,3.99,1.361,5.868,2.321c-0.226,2.507,1.426,4.939,2.981,6.817
						c1.089,1.316,2.27,2.589,3.657,3.599c0.65,0.473,1.331,0.882,2.02,1.293c0.302,0.18,0.594,0.373,0.869,0.594
						c0.078,0.063,0.153,0.133,0.226,0.203c0.053,0.354,0.096,0.709,0.124,1.065C173.807,150.599,173.777,152.037,173.607,153.453z"
						/>
				</g>
				<path style="fill:#EAE8E4;" d="M172.959,146.546c-1.433-0.913-2.708-2.07-3.865-3.309c-0.853-0.913-1.656-1.877-2.331-2.931
					c-0.661-1.031-1.27-2.157-1.605-3.347c-0.07-0.213-0.134-0.427-0.186-0.645c-0.006-0.024-0.007-0.047-0.012-0.07
					c0.013,0.008,0.027,0.015,0.04,0.022c-0.109-0.652-0.087-1.316,0.165-1.889c-0.073-0.038-0.145-0.079-0.218-0.116
					c0.22-0.171,0.433-0.351,0.648-0.528c0.088-0.091,0.182-0.18,0.291-0.26c0.02-0.015,0.04-0.019,0.059-0.027
					c0.317-0.273,0.628-0.556,0.928-0.855c0.966-0.96,1.837-2.012,2.633-3.115c1.635-2.268,2.865-4.881,3.741-7.531
					c1.796-5.435,2.157-11.313,1.296-16.957c-0.874-5.725-3.129-11.156-6.798-15.659c-4.128-5.067-10.11-9.002-16.589-10.215
					c-1.409-0.264-2.809-0.375-4.202-0.376c-0.761-2.346-2.865-3.508-5.12-4.215c-2.734-0.857-5.637-1.103-8.46-1.516
					c-1.281-0.188-2.569-0.39-3.818-0.739c-1.297-0.363-2.373-0.944-3.388-1.865c-2.782-2.527-3.357-6.813-1.22-9.932
					c0.979-1.429,2.48-2.39,3.926-3.287c1.563-0.969,3.13-1.915,4.445-3.217c0.312-0.309,0.337-0.815-0.11-0.989
					c-0.932-0.362-1.908-0.555-2.896-0.624c-1.958,0.88-3.877,1.846-5.737,2.918c-1.66,0.957-3.277,2.002-4.814,3.153
					c-1.312,1.549-2.408,3.277-3.173,5.146c-0.655,1.602-1.057,3.317-1.091,5.051c-0.037,1.916,0.394,3.744,1.224,5.466
					c0.994,2.064,2.37,3.902,3.847,5.642c0.725,0.854,1.46,1.704,2.215,2.532c0.473,0.519,1.073,1.047,1.357,1.703
					c0.235,0.543,0.048,1.049-0.365,1.444c-0.575,0.549-1.368,0.994-2.127,1.228c-1.665,0.514-3.558,0.231-5.196-0.246
					c-1.594-0.465-3.275-1.19-4.463-2.386c-1.356-1.365-2.129-3.224-2.536-5.079c-0.418-1.907-0.495-3.896-0.247-5.831
					c0.222-1.744,0.809-3.464,1.555-5.05c1.524-3.241,3.91-6.016,6.605-8.345c0.671-0.58,1.363-1.133,2.072-1.666
					c1.247-1.468,2.684-2.778,4.246-3.906c-1.269,0.62-2.517,1.281-3.734,1.996c-2.75,1.616-5.35,3.505-7.625,5.747
					c-2.286,2.253-4.213,4.856-5.624,7.743c-0.808,1.654-1.452,3.394-1.796,5.206c-0.33,1.737-0.343,3.509-0.161,5.264
					c0.191,1.844,0.628,3.641,0.915,5.469c0.264,1.679,0.283,3.426-0.662,4.909c-0.059,0.092-0.175,0.154-0.286,0.119
					c-1.709-0.538-2.623-2.414-3.199-3.969c-0.611-1.649-0.972-3.407-1.142-5.156c-0.196-2.006,0.04-4.039,0.504-5.994
					c0.214-0.898,0.476-1.79,0.782-2.669c-0.513,0.984-0.991,1.986-1.425,3.009c-0.431,1.014-0.814,2.049-1.233,3.069
					c-0.075,0.525-0.137,1.05-0.187,1.57c-0.306,3.222,0.725,6.432,0.229,9.656c-0.221,1.441-0.851,2.739-2.147,3.49
					c-1.411,0.818-3.163,0.945-4.759,0.945c-1.669,0-3.325-0.195-4.985-0.339c-2.223-0.191-4.475-0.144-6.704-0.116
					c-0.59,0.008-1.18,0.017-1.771,0.027c-2.565,0.815-5.203,1.444-7.869,1.869c-3.038-0.042-6.078,0.02-9.107,0.233
					c-3.868,0.272-7.865,0.791-11.718,1.781c1.456,0.038,2.912,0.077,4.369,0.114c7.831,0.2,15.671,0.435,23.468,1.242
					c0.271,0.028,0.367,0.417,0.072,0.499c-2.953,0.822-6.001,1.236-9.058,1.4c-5.432,0.292-10.866-0.168-16.3-0.117
					c-3.941,0.037-7.886,0.394-11.673,1.412c-0.094,0.131-0.202,0.251-0.301,0.378c2.771-0.564,5.589-0.88,8.419-0.983
					c3.435-0.125,6.874,0.045,10.298,0.316c3.497,0.276,6.98,0.714,10.48,0.941c3.459,0.225,6.987,0.333,10.43-0.14
					c3.199-0.439,6.426-1.28,9.676-0.999c0.226,0.019,0.38,0.349,0.133,0.473c-0.381,0.19-0.766,0.369-1.157,0.539
					c-3.359,1.458-6.995,2.181-10.619,2.588c-3.838,0.431-7.709,0.494-11.567,0.438c-3.715-0.054-7.426-0.238-11.141-0.31
					c-4.178-0.08-8.371-0.008-12.524,0.489c-3.116,0.373-6.217,1.004-9.195,2.003c-0.402,0.222-0.811,0.428-1.235,0.6
					c1.921-0.108,3.843-0.212,5.766-0.286c4.573-0.176,9.163-0.204,13.726,0.194c4.541,0.396,9.05,1.222,13.367,2.707
					c0.256,0.088,0.239,0.521-0.063,0.5c-4.126-0.291-8.273-0.068-12.38,0.373c-1.849,0.199-3.692,0.443-5.531,0.718
					c-1.498,0.223-3.011,0.422-4.491,0.745c-2.137,0.465-4.244,1.064-6.377,1.549c-2.269,0.516-4.584,0.972-6.915,1.088
					c-0.048,0.034-0.096,0.069-0.144,0.102c-0.626,0.428-1.317,0.77-2.046,0.984c-0.086,0.276-0.194,0.547-0.344,0.805
					c-0.253,0.436-0.571,0.821-0.931,1.168c1.842,0.3,3.674,0.653,5.49,1.085c3.885,0.925,7.675,2.217,11.3,3.898
					c2,0.927,3.909,2.003,5.824,3.09c1.989,1.129,3.976,2.26,5.936,3.437c1.886,1.132,3.718,2.336,5.552,3.548
					c1.423,0.941,2.906,1.789,4.367,2.668c1.556,0.937,3.102,1.898,4.549,2.997c1.281,0.973,2.51,2.062,3.411,3.407
					c0.087,0.13,0.008,0.342-0.148,0.375c-0.354,0.074-0.713,0.123-1.073,0.143c-1.603,0.087-3.212-0.335-4.7-0.895
					c-1.646-0.619-3.213-1.434-4.734-2.314c-3.247-1.878-6.346-4-9.511-6.009c-1.832-1.163-3.686-2.293-5.594-3.329
					c-1.93-1.048-3.92-1.977-5.944-2.827c-3.878-1.63-7.906-2.933-12.05-3.684c-3.359-0.609-6.774-0.821-10.178-0.648
					c-0.008,0.025-0.02,0.049-0.028,0.074c0.696,0.195,1.39,0.4,2.079,0.619c5.886,1.868,11.525,4.551,16.685,7.943
					c5.101,3.354,9.764,7.422,13.577,12.201c0.181,0.227-0.033,0.525-0.304,0.402c-3.11-1.408-5.902-3.396-8.617-5.444
					c-2.452-1.85-4.862-3.767-7.452-5.426c-1.302-0.834-2.648-1.601-4.052-2.249c-1.046-0.483-2.147-0.859-3.242-1.214
					c-2.566-0.833-5.224-1.484-7.915-1.735c-1.923-0.179-4.046-0.197-5.904,0.475c1.638,0.688,3.252,1.432,4.831,2.247
					c2.173,1.12,4.299,2.368,6.23,3.874c1.569,1.223,3.068,2.663,3.903,4.499c0.518,1.139,0.871,2.453,0.514,3.693
					c-0.685,2.383-3.498,3.255-5.666,3.627c-3.101,0.533-6.325,0.384-9.43-0.04c-0.739-0.101-1.477-0.222-2.209-0.368
					c0.99,2.179,2.316,4.234,4.039,5.825c1.604,1.867,3.534,3.407,5.596,4.747c4.364,2.836,9.292,4.763,14.268,6.222
					c5.079,1.489,10.282,2.499,15.474,3.5c5.589,1.078,11.161,2.152,16.808,2.891c11.923,1.56,23.96,2.065,35.977,2.117
					c5.981,0.026,11.976,0.03,17.947-0.351c5.978-0.382,11.933-1.105,17.835-2.12c5.989-1.03,11.925-2.359,17.796-3.927
					c3.475-0.928,7.33-1.624,10.607-3.295c0.053,0.015,0.116,0.021,0.201,0.001c5.136-1.158,6.796-7.272,7.05-11.854
					c0.07-1.259,0.026-2.526-0.141-3.775C174.376,147.359,173.64,146.98,172.959,146.546z M84.136,106.267
					c0.304-0.136,0.615-0.253,0.927-0.364c0.02-0.017,0.041-0.035,0.069-0.047c1.124-0.479,2.273-0.9,3.435-1.277
					c2.362-0.766,4.786-1.363,7.245-1.712c2.271-0.323,4.631-0.461,6.891,0.011c0.207,0.043,0.26,0.369,0.065,0.464
					c-1.223,0.601-2.478,1.136-3.755,1.609c-2.449,0.909-4.988,1.608-7.575,1.978c-2.391,0.342-4.883,0.418-7.238-0.199
					C84.006,106.68,83.929,106.36,84.136,106.267z M82.617,110.941c2.355-0.205,4.719,0.313,7.068-0.056
					c0.188-0.029,0.31,0.126,0.318,0.27c0.231-0.011,0.462-0.016,0.693-0.029c4.593-0.26,9.167-1,13.576-2.325
					c4.427-1.33,8.668-3.259,12.508-5.839c0.168-0.113,0.376,0.034,0.385,0.216c0.015,0.298,0.017,0.597,0.002,0.895
					c-0.122,2.356-1.31,4.422-3.106,5.914c-2.038,1.694-4.593,2.692-7.135,3.348c-2.95,0.762-6.015,1.088-9.057,1.134
					c-2.971,0.045-5.964-0.178-8.881-0.752c-2.23-0.438-4.562-1.062-6.494-2.303C82.274,111.275,82.366,110.963,82.617,110.941z
					 M117.195,140.58c-2.417,1.265-5.289,1.443-7.966,1.346c-2.665-0.097-5.316-0.507-7.928-1.033
					c-2.618-0.527-5.245-1.115-7.762-2.018c-5.296-1.9-10.002-4.989-14.745-7.957c0.698,0.787,1.421,1.551,2.168,2.29
					c4.19,4.144,8.979,7.624,13.732,11.083c0.215,0.157,0.102,0.566-0.192,0.467c-3.797-1.29-7.459-2.945-10.976-4.87
					c-3.129-1.712-6.143-3.629-9.081-5.649c-2.885-1.984-5.697-4.048-8.711-5.839c-1.732-1.03-3.506-1.975-5.31-2.856
					c-6.012-2.43-12.115-4.594-18.543-5.653c-0.303-0.05-0.201-0.476,0.063-0.5c0.702-0.064,1.402-0.139,2.102-0.222
					c2.778-0.329,5.548-0.775,8.347-0.885c2.747-0.108,5.476,0.211,8.176,0.705c2.688,0.492,5.336,1.185,7.945,1.994
					c2.624,0.814,5.236,1.708,7.788,2.727c5.014,2.002,9.792,4.526,14.638,6.892c2.443,1.193,4.855,2.421,7.4,3.389
					c2.456,0.935,4.964,1.753,7.474,2.53c1.981,0.614,4.049,0.912,6.063,1.396c1.873,0.45,3.854,1.013,5.364,2.264
					C117.365,140.281,117.332,140.508,117.195,140.58z M118.803,122.753c-1.45,0.55-3.032,0.825-4.561,1.056
					c-1.777,0.268-3.576,0.419-5.373,0.383c-3.063-0.061-6.784-0.609-8.727-3.265c-0.095-0.131-0.001-0.339,0.149-0.375
					c0.258-0.062,0.517-0.124,0.776-0.185c2.359-0.558,4.725-1.086,7.07-1.702c2.568-0.675,5.118-1.445,7.581-2.44
					c2.351-0.95,4.661-2.117,6.657-3.697c1.808-1.431,3.356-3.246,4.176-5.424c0.589-1.565,0.773-3.213,0.67-4.855
					c-0.451-1.244-0.819-2.509-0.842-3.85c-0.003-0.17,0.16-0.284,0.319-0.248c0.419,0.094,0.829,0.216,1.227,0.377
					c1.408,0.569,2.554,1.604,3.233,2.966c0.676,1.354,0.908,2.891,0.898,4.393c-0.011,1.585-0.281,3.172-0.723,4.693
					c-0.498,1.717-1.219,3.374-2.266,4.83C126.574,118.872,122.742,121.258,118.803,122.753z M145.358,121.721
					c-2.661,2.6-6.136,4.37-9.794,5.036c-3.763,0.684-7.684,0.173-11.068-1.642c-0.158-0.085-0.177-0.356-0.004-0.439
					c2.406-1.156,4.721-2.524,6.823-4.176c3.352-2.634,6.218-6.077,7.429-10.226c0.858-2.939,0.765-5.96,0.031-8.855
					c-0.975-2.218-2.287-4.292-3.567-6.352c-0.104-0.167,0.027-0.379,0.216-0.384c0.542-0.015,1.084-0.005,1.624,0.038
					c2.026,0.161,4.007,0.759,5.753,1.806c1.67,1.001,3.089,2.377,4.204,3.968c1.156,1.65,1.98,3.528,2.487,5.475
					c0.508,1.953,0.752,4.039,0.584,6.055C149.766,115.723,147.999,119.141,145.358,121.721z M161.647,107.751
					c-0.049,2.398-0.317,4.854-0.93,7.178c-0.487,1.847-1.277,3.629-2.252,5.268c-1.909,3.212-5.126,6.692-9.229,6.226
					c-0.194-0.022-0.315-0.194-0.223-0.381c0.798-1.619,1.891-3.06,2.901-4.548c0.513-0.756,1.006-1.526,1.429-2.336
					c0.452-0.866,0.787-1.779,1.099-2.703c2.129-6.326,1.184-13.776-2.865-19.146c-1.723-2.285-3.984-4.192-6.588-5.394
					c-2.314-1.069-4.873-1.507-7.397-1.239c-0.606,0.227-1.236,0.326-1.896,0.184c-0.189-0.041-0.246-0.293-0.116-0.424
					c0.353-0.357,0.727-0.69,1.122-0.998c3.201-2.496,7.484-2.952,11.352-2.061c3.846,0.887,7.559,3.084,9.855,6.341
					C160.766,97.77,161.747,102.868,161.647,107.751z"/>
				<path style="fill:#EAE8E4;" d="M172.959,146.546c-1.433-0.913-2.708-2.07-3.865-3.309c-0.853-0.913-1.656-1.877-2.331-2.931
					c-0.661-1.031-1.27-2.157-1.605-3.347c-0.07-0.213-0.134-0.427-0.186-0.645c-0.006-0.024-0.007-0.047-0.012-0.07
					c0.013,0.008,0.027,0.015,0.04,0.022c-0.109-0.652-0.087-1.316,0.165-1.889c-0.073-0.038-0.145-0.079-0.218-0.116
					c0.22-0.171,0.433-0.351,0.648-0.528c0.088-0.091,0.182-0.18,0.291-0.26c0.02-0.015,0.04-0.019,0.059-0.027
					c0.317-0.273,0.628-0.556,0.928-0.855c0.966-0.96,1.837-2.012,2.633-3.115c1.635-2.268,2.865-4.881,3.741-7.531
					c1.796-5.435,2.157-11.313,1.296-16.957c-0.874-5.725-3.129-11.156-6.798-15.659c-4.128-5.067-10.11-9.002-16.589-10.215
					c-1.409-0.264-2.809-0.375-4.202-0.376c-0.761-2.346-2.865-3.508-5.12-4.215c-2.734-0.857-5.637-1.103-8.46-1.516
					c-1.281-0.188-2.569-0.39-3.818-0.739c-1.297-0.363-2.373-0.944-3.388-1.865c-2.782-2.527-3.357-6.813-1.22-9.932
					c0.979-1.429,2.48-2.39,3.926-3.287c1.563-0.969,3.13-1.915,4.445-3.217c0.312-0.309,0.337-0.815-0.11-0.989
					c-0.932-0.362-1.908-0.555-2.896-0.624c-1.429,0.643-2.837,1.332-4.217,2.074c-3.836,3.304-6.67,9.062-3.847,13.821
					c1.742,2.937,4.969,4.788,7.999,6.136c3.151,1.402,6.467,2.433,9.475,4.144c0.265,0.151,0.08,0.512-0.192,0.466
					c-2.262-0.382-4.623,0.242-6.755,0.961c-1.879,0.633-3.691,1.438-5.481,2.289c3.42,0.169,6.834-0.233,10.23-0.63
					c3.349-0.392,6.719-0.772,10.097-0.604c2.637,0.131,5.249,0.633,7.738,1.519c4.498,1.6,8.728,4.564,10.328,9.245
					c0.075,0.218-0.185,0.39-0.371,0.29c-3.239-1.735-6.617-3.039-10.172-3.9c2.967,2.236,5.251,5.265,6.784,8.654
					c3.094,6.842,3.43,15.086,0.895,22.157c-1.296,3.617-3.394,6.903-6.398,9.338c-3.094,2.508-7.308,4.035-10.855,1.49
					c-0.089-0.064-0.157-0.171-0.12-0.286c1.721-5.259,4.944-9.973,6.153-15.392c-1.036,1.754-1.938,3.586-2.931,5.365
					c-2.136,3.828-4.906,7.297-9.339,8.436c-2.865,0.736-5.942,0.749-8.88,0.721c-1.96-0.019-3.921-0.098-5.881-0.123
					c2.61,0.324,5.226,0.611,7.829,0.995c4.752,0.702,9.569,1.518,14.129,3.069c1.712,0.582,3.465,1.271,4.926,2.359
					c0.982,0.731,1.904,1.751,1.92,3.044c0.023,1.893-1.654,3.146-3.185,3.912c-2.648,1.324-5.658,1.954-8.563,2.408
					c-3.248,0.509-6.567,0.801-9.846,0.471c-3.572-0.359-7.057-1.283-10.43-2.5c4.918,2.752,10.558,4.138,16.036,5.255
					c5.4,1.101,10.839,1.96,16.181,3.333c5.045,1.297,10.234,3.24,13.664,7.357c0.964,1.157,1.438,2.461,1.803,3.912
					c0.067,0.267,0.122,0.538,0.181,0.808c4.367-1.672,5.83-7.28,6.066-11.555c0.07-1.259,0.026-2.526-0.141-3.775
					C174.376,147.359,173.64,146.98,172.959,146.546z"/>
			</g>
			<g>
				<path style="fill:#E0E1E2;" d="M177.715,148.351l-92.983,0.662l-71.81,0.852c0,0-3.414,1.416-2.234,5.558
					c1.18,4.142,14.965,199.201,32.724,205.267c9.277,3.169,16.491,4.661,21.624,6.639c4.229,0.902,8.488,1.593,12.766,2.052
					c10.668,1.145,21.406,0.967,32.068-0.069c5.412-0.526,10.849-1.173,16.214-2.185c1.781-0.336,3.556-0.706,5.331-1.083
					c4.942-1.771,11.513-3.383,19.687-6.344c17.644-6.391,27.842-201.67,28.946-205.834
					C181.154,149.704,177.715,148.351,177.715,148.351z"/>
				
					<linearGradient id="SVGID_1_" gradientUnits="userSpaceOnUse" x1="26.3366" y1="423.5827" x2="191.3133" y2="423.5827" gradientTransform="matrix(1 -0.0092 0.0111 1.212 -17.2045 -253.6844)">
					<stop  offset="0.5621" style="stop-color:#FFFFFF"/>
					<stop  offset="0.5942" style="stop-color:#FFFFFF"/>
					<stop  offset="0.9812" style="stop-color:#FFFFFF"/>
				</linearGradient>
				<path style="opacity:0.61;fill:url(#SVGID_1_);" d="M175.401,152.708l-90.327,0.647l-69.759,0.824c0,0-3.316,1.348-2.17,5.291
					s14.502,189.609,31.754,195.38c17.854,5.973,33.477,9.224,52.036,9.27c9.316,0.023,21.564-0.524,30.715-2.598
					c7.301-1.654,19.483-3.461,24.691-10.31c2.401-3.158,3.602-8.141,4.704-12.077c8.959-32.016,11.143-67.557,14.182-100.919
					c2.392-26.257,3.317-52.863,6.28-79.027c0.046-0.403,0.056-0.842,0.162-1.232C178.742,153.995,175.401,152.708,175.401,152.708z
					"/>
				<path style="fill:#402A00;" d="M17.503,204.967c5.468,56.495,15.506,145.906,27.395,149.883
					c17.854,5.973,33.477,9.223,52.036,9.27c9.316,0.024,21.564-0.524,30.715-2.598c7.301-1.654,19.483-3.461,24.691-10.31
					c2.401-3.158,3.602-8.141,4.704-12.077c8.959-32.016,11.144-67.557,14.182-100.919c1.049-11.517,1.817-23.102,2.597-34.686
					L17.503,204.967z"/>
				<path style="fill:#EAE8E4;" d="M173.418,209.528c1.14-16.823,2.202-33.67,4.089-50.338c0.046-0.404,0.056-0.842,0.162-1.232
					c1.073-3.963-2.267-5.25-2.267-5.25l-90.327,0.647l-69.759,0.824c0,0-3.316,1.348-2.17,5.29
					c0.383,1.32,2.136,23.004,4.944,51.486L173.418,209.528z"/>
				<path style="fill:#9E785C;" d="M17.148,201.278c0.299,3.12,0.612,6.35,0.94,9.677l155.329-1.427
					c0.219-3.23,0.436-6.461,0.655-9.692L17.148,201.278z"/>
				<g style="opacity:0.64;">
					<path style="fill:#CCCDCF;" d="M43.413,360.69c9.277,3.169,16.491,4.661,21.624,6.639c4.229,0.902,8.488,1.593,12.766,2.052
						c10.668,1.145,21.406,0.967,32.068-0.069c5.412-0.526,10.849-1.173,16.214-2.185c1.781-0.336,3.556-0.706,5.331-1.083
						c4.942-1.771,11.513-3.383,19.687-6.344c5.809-2.104,10.811-24.688,14.948-54.183c-1.631,4.807-4.597,13.289-9.265,25.753
						c-7.804,20.836-58.016,25.45-89.762,19.859c-31.746-5.591-37.72-34.261-37.72-34.261l-0.187-0.21
						C33.403,341.113,38.239,358.923,43.413,360.69z"/>
				</g>
				<path style="opacity:0.29;fill:#9E785C;" d="M60.325,316.007c-3.49-31.835-12.345-142.375-13.512-156.991l-28.773,0.264
					c2.076,17.743,14.545,124.021,18.635,151.868c4.467,30.413,9.099,37.292,15.6,40.462c6.501,3.17,28.226,5.739,28.226,5.739
					S64.065,350.118,60.325,316.007z"/>
				<path style="fill:#C8C9CA;" d="M173.456,156.696c0,0-12.197,164.151-18.91,179.44c-6.713,15.289-27.796,20.328-27.796,20.328
					s15.938-5.684,17.961-34.08c2.023-28.396,10.465-166.211,10.465-166.211L173.456,156.696z"/>
				<path style="opacity:0.29;fill:#FFFFFF;" d="M25.592,161.516l19.146,156.941c0,0,2.898,25.352,13.587,28.484
					c0,0-6.539-7.323-8.372-40.99c-1.832-33.667-15.391-141.979-15.391-141.979L25.592,161.516z"/>
			</g>
			<g>
				<path style="fill:#B759A2;" d="M155.202,147.322l-0.132-0.229c-0.351-0.608-0.141-1.392,0.467-1.743l5.402-3.119
					c0.608-0.351,1.393-0.141,1.743,0.467l0.132,0.229c0.351,0.608,0.141,1.392-0.467,1.743l-5.402,3.119
					C156.337,148.14,155.553,147.93,155.202,147.322z"/>
				<path style="fill:#EE3662;" d="M153.193,126.314l0.05-0.259c0.132-0.689,0.805-1.145,1.494-1.013l6.126,1.176
					c0.689,0.132,1.145,0.804,1.013,1.494l-0.05,0.259c-0.132,0.689-0.805,1.145-1.494,1.013l-6.126-1.176
					C153.517,127.675,153.061,127.003,153.193,126.314z"/>
				<path style="fill:#5DBCEA;" d="M127.526,138.154l0.043-0.222c0.113-0.59,0.688-0.98,1.278-0.867l5.243,1.006
					c0.59,0.113,0.98,0.689,0.867,1.279l-0.043,0.222c-0.113,0.59-0.688,0.98-1.278,0.867l-5.243-1.006
					C127.803,139.32,127.413,138.744,127.526,138.154z"/>
			</g>
			<g>
				<path style="fill:#136AB4;" d="M108.962,141.93l-0.194-0.179c-0.516-0.476-0.548-1.287-0.072-1.803l4.231-4.584
					c0.476-0.516,1.288-0.548,1.803-0.072l0.194,0.179c0.516,0.476,0.548,1.288,0.072,1.804l-4.231,4.584
					C110.289,142.374,109.478,142.406,108.962,141.93z"/>
				<path style="fill:#7163AC;" d="M100.799,122.469l-0.03-0.262c-0.079-0.698,0.428-1.333,1.125-1.411l6.199-0.698
					c0.698-0.079,1.332,0.428,1.411,1.125l0.03,0.262c0.078,0.698-0.428,1.332-1.125,1.411l-6.199,0.699
					C101.513,123.673,100.878,123.167,100.799,122.469z"/>
				<path style="fill:#CF6528;" d="M79.812,141.404l-0.025-0.224c-0.067-0.597,0.366-1.14,0.963-1.208l5.305-0.598
					c0.597-0.067,1.14,0.366,1.208,0.963l0.025,0.224c0.067,0.597-0.366,1.14-0.963,1.208l-5.305,0.598
					C80.423,142.434,79.88,142.001,79.812,141.404z"/>
			</g>
			<g>
				<path style="fill:#9852A0;" d="M56.771,144.697l-0.194-0.179c-0.516-0.476-0.548-1.288-0.072-1.803l4.231-4.584
					c0.476-0.516,1.288-0.548,1.803-0.072l0.194,0.179c0.516,0.476,0.548,1.287,0.072,1.803l-4.231,4.584
					C58.098,145.141,57.286,145.173,56.771,144.697z"/>
				<path style="fill:#97CA4A;" d="M48.608,125.235l-0.03-0.262c-0.078-0.698,0.428-1.333,1.125-1.411l6.199-0.699
					c0.698-0.078,1.333,0.428,1.411,1.125l0.03,0.262c0.079,0.697-0.428,1.332-1.125,1.411l-6.199,0.698
					C49.321,126.439,48.686,125.933,48.608,125.235z"/>
				<path style="fill:#FBAA19;" d="M27.621,144.17l-0.025-0.224c-0.067-0.597,0.366-1.14,0.963-1.208l5.305-0.598
					c0.597-0.067,1.14,0.366,1.207,0.963l0.025,0.224c0.067,0.597-0.366,1.14-0.963,1.208l-5.305,0.598
					C28.231,145.201,27.688,144.767,27.621,144.17z"/>
			</g>
			<g>
				<path style="fill:#CC872E;" d="M71.182,126.686l0.11-0.233c0.294-0.619,1.042-0.886,1.661-0.591l5.505,2.614
					c0.619,0.294,0.886,1.042,0.591,1.661l-0.111,0.233c-0.294,0.619-1.041,0.886-1.661,0.591l-5.505-2.614
					C71.154,128.053,70.888,127.305,71.182,126.686z"/>
				<path style="fill:#FBAA19;" d="M86.961,113.416l0.236-0.104c0.628-0.276,1.367,0.012,1.643,0.639l2.453,5.579
					c0.276,0.628-0.012,1.367-0.639,1.643l-0.236,0.104c-0.628,0.276-1.367-0.012-1.643-0.64l-2.453-5.579
					C86.046,114.432,86.334,113.692,86.961,113.416z"/>
				<path style="fill:#EE3662;" d="M63.201,99.345l0.202-0.089c0.537-0.236,1.17,0.01,1.406,0.547l2.099,4.774
					c0.236,0.537-0.01,1.17-0.547,1.406l-0.202,0.089c-0.537,0.236-1.17-0.01-1.406-0.547l-2.099-4.774
					C62.418,100.214,62.664,99.581,63.201,99.345z"/>
			</g>
			<g>
				<path style="fill:#136AB4;" d="M127.424,118.535l0.11-0.233c0.294-0.619,1.042-0.885,1.661-0.591l5.505,2.614
					c0.62,0.294,0.886,1.041,0.591,1.661l-0.11,0.233c-0.294,0.62-1.042,0.886-1.661,0.592l-5.505-2.614
					C127.396,119.902,127.13,119.155,127.424,118.535z"/>
				<path style="fill:#FBAA19;" d="M143.203,105.266l0.236-0.104c0.628-0.276,1.367,0.012,1.643,0.639l2.453,5.579
					c0.276,0.628-0.012,1.367-0.639,1.643l-0.236,0.104c-0.628,0.276-1.367-0.012-1.643-0.64l-2.453-5.579
					C142.288,106.281,142.576,105.541,143.203,105.266z"/>
				<path style="fill:#9852A0;" d="M119.443,91.194l0.202-0.089c0.537-0.236,1.17,0.01,1.406,0.547l2.099,4.774
					c0.236,0.537-0.01,1.17-0.547,1.406l-0.202,0.089c-0.537,0.236-1.17-0.01-1.406-0.547l-2.099-4.774
					C118.66,92.063,118.906,91.431,119.443,91.194z"/>
			</g>
			<g>
				<path style="fill:#7163AC;" d="M157.795,100.491l0.111-0.233c0.294-0.619,1.042-0.886,1.661-0.591l5.505,2.614
					c0.62,0.294,0.886,1.042,0.592,1.661l-0.111,0.233c-0.294,0.619-1.041,0.886-1.661,0.591l-5.505-2.614
					C157.767,101.858,157.501,101.11,157.795,100.491z"/>
				<path style="fill:#EE3662;" d="M159.209,81.024l0.236-0.104c0.628-0.276,1.367,0.012,1.643,0.639l2.453,5.579
					c0.276,0.628-0.012,1.367-0.639,1.643l-0.236,0.104c-0.628,0.276-1.367-0.012-1.643-0.639l-2.453-5.579
					C158.294,82.04,158.581,81.3,159.209,81.024z"/>
				<path style="fill:#CF6528;" d="M139.876,81.714l0.097-0.198c0.258-0.527,0.9-0.747,1.427-0.49l4.685,2.292
					c0.527,0.258,0.748,0.9,0.49,1.427l-0.097,0.198c-0.258,0.527-0.9,0.747-1.427,0.49l-4.685-2.292
					C139.839,82.883,139.619,82.241,139.876,81.714z"/>
			</g>
			<g>
				<path style="fill:#5DBCEA;" d="M116.622,72.697l-0.193-0.08c-0.515-0.214-0.761-0.81-0.547-1.324l1.899-4.574
					c0.214-0.514,0.81-0.761,1.324-0.547l0.194,0.08c0.515,0.214,0.761,0.81,0.547,1.324l-1.899,4.574
					C117.732,72.664,117.136,72.91,116.622,72.697z"/>
				<path style="fill:#136AB4;" d="M100.765,72.335l-0.094-0.187c-0.249-0.498-0.046-1.11,0.453-1.359l4.429-2.216
					c0.498-0.25,1.11-0.046,1.359,0.453l0.094,0.187c0.249,0.498,0.046,1.11-0.453,1.359l-4.429,2.216
					C101.626,73.037,101.014,72.834,100.765,72.335z"/>
				<path style="fill:#97CA4A;" d="M102.106,87.998l-0.165-0.071c-0.438-0.188-0.643-0.7-0.455-1.139l1.671-3.895
					c0.188-0.438,0.7-0.643,1.139-0.455l0.165,0.071c0.438,0.188,0.643,0.701,0.455,1.139l-1.671,3.895
					C103.056,87.981,102.544,88.186,102.106,87.998z"/>
			</g>
			<g>
				<path style="fill:#EE3662;" d="M97.099,105.76l-0.095-0.186c-0.253-0.496-0.055-1.11,0.442-1.363l4.41-2.252
					c0.496-0.254,1.11-0.055,1.363,0.441l0.095,0.186c0.253,0.496,0.055,1.11-0.442,1.363l-4.411,2.252
					C97.966,106.455,97.352,106.257,97.099,105.76z"/>
				<path style="fill:#CC872E;" d="M85.257,95.209l0.05-0.203c0.133-0.541,0.685-0.875,1.226-0.742l4.809,1.182
					c0.541,0.133,0.875,0.685,0.742,1.226l-0.05,0.203c-0.133,0.541-0.684,0.875-1.226,0.742l-4.809-1.182
					C85.458,96.302,85.124,95.75,85.257,95.209z"/>
				<path style="fill:#7163AC;" d="M76.127,108.007l-0.08-0.161c-0.212-0.427-0.036-0.95,0.391-1.162l3.797-1.884
					c0.427-0.212,0.95-0.036,1.162,0.391l0.08,0.16c0.212,0.427,0.036,0.95-0.391,1.162l-3.797,1.884
					C76.862,108.61,76.339,108.434,76.127,108.007z"/>
			</g>
			<g>
				<path style="fill:#B759A2;" d="M46.208,116.185l-0.144-0.152c-0.382-0.405-0.363-1.05,0.042-1.432l3.603-3.397
					c0.405-0.382,1.05-0.363,1.432,0.042l0.144,0.152c0.382,0.405,0.363,1.05-0.042,1.432l-3.603,3.398
					C47.234,116.609,46.59,116.59,46.208,116.185z"/>
				<path style="fill:#CC872E;" d="M31.885,109.372l-0.009-0.209c-0.024-0.557,0.412-1.032,0.969-1.055l4.948-0.212
					c0.557-0.024,1.032,0.412,1.056,0.969l0.009,0.209c0.024,0.557-0.412,1.032-0.969,1.056l-4.948,0.212
					C32.383,110.365,31.909,109.929,31.885,109.372z"/>
				<path style="fill:#5DBCEA;" d="M26.704,124.214l-0.122-0.132c-0.323-0.351-0.3-0.902,0.05-1.225l3.117-2.872
					c0.351-0.323,0.902-0.3,1.225,0.05l0.122,0.132c0.323,0.351,0.3,0.902-0.05,1.225l-3.117,2.872
					C27.578,124.588,27.027,124.565,26.704,124.214z"/>
			</g>
		</g>
	</g>
	<g>
		<path style="fill:#D09670;" d="M216.163,313.043c-3.971-0.366-7.92-1.585-11.127-4.011c-0.105-0.079-0.015-0.274,0.112-0.211
			c0.415,0.204,0.84,0.389,1.274,0.551c3.569,1.33,7.489,1.022,11.082-0.046c3.987-1.186,7.694-3.261,11.067-5.666
			c3.243-2.311,6.256-4.983,8.9-7.963c2.931-3.303,5.402-7.042,7.239-11.06c2.084-4.56,3.472-9.631,3.128-14.681
			c-0.006-0.094,0.1-0.192,0.189-0.119c0.89,0.735,1.53,1.722,1.988,2.773c0.385,0.883,0.659,1.814,0.845,2.766
			c0.03-2.724-0.249-5.434-0.898-8.035c-0.026-0.105-0.07-0.184-0.124-0.242c-0.241-1.454-0.562-2.895-0.949-4.318
			c-1.682-6.176-4.594-11.966-7.584-17.596c-6.086-11.458-12.179-22.957-18.847-34.09c-2.328-3.888-4.593-8.422-8.068-11.443
			c-3.742-3.253-8.659-3.688-13.412-3.988c-6.326-0.4-12.679-0.142-18.999-0.65c-3.171-0.255-6.316-0.744-9.475-1.11
			c-2.463-0.286-5.195-0.788-7.652-0.225c-4.155,0.952-7.622,4.07-10.616,6.934c-3.272,3.129-6.25,6.539-9.743,9.432
			c-4.887,4.046-9.94,7.951-15.448,11.124c-3.461,1.993-7.504,3.65-9.843,7.064c-1.913,2.792-2.009,6.695-0.018,9.476
			c1.796,2.508,4.891,3.701,7.798,4.338c7.476,1.639,15.134,0.245,22.134-2.553c5.69-2.274,11.016-5.34,16.332-8.363
			c4.033-2.293,8.586-4.584,13.384-3.801c0.921,0.15,1.723,0.444,2.459,0.838c4.821,5.006,3.105,12.52,1.807,18.64
			c-1.431,6.746-3.55,13.335-4.759,20.13c-1.936,10.878-0.666,22.308,5.009,31.938c5.146,8.733,13.695,14.891,23.881,16.001
			c5.766,0.629,11.573-0.162,16.971-2.116C221.538,313.173,218.834,313.29,216.163,313.043z"/>
		<path style="fill:#FFE3CB;" d="M249.196,272.891c0.046,1.245,0.005,2.489-0.019,3.73c-0.474,9.405-4.069,18.516-10.749,25.406
			c-7.63,7.869-18.594,12.275-29.57,11.421c-10.156-0.79-18.833-6.716-23.991-15.393c-5.616-9.448-6.927-20.64-5.038-31.345
			c1.282-7.266,3.617-14.295,4.972-21.546c0.834-4.463,1.923-10.427-0.402-14.606c0.105,0.098,0.21,0.196,0.316,0.296
			c1.766,1.661,3.55,3.307,5.395,4.881c0.355,0.302,0.713,0.601,1.074,0.897c-0.691-1.212-1.372-2.43-2.082-3.631
			c-0.15-0.254-0.304-0.507-0.457-0.76c-1.092-1.017-2.169-2.047-3.242-3.07c-1.524-1.453-2.984-2.634-5.072-3.156
			c-1.982-0.495-4.088-0.391-6.078,0.01c-4.774,0.961-8.833,3.688-13.01,6.041c-8.085,4.555-16.742,9.043-26.219,9.223
			c-5.372,0.102-14.684-0.719-15.741-7.49c-0.693-4.439,2.635-7.164,6.104-9.175c1.887-1.094,3.832-2.075,5.696-3.21
			c2.557-1.557,5.018-3.268,7.415-5.061c4.023-3.009,7.978-6.148,11.507-9.732c3.18-3.23,6.27-6.687,10.029-9.265
			c1.605-1.101,3.395-2.085,5.35-2.35c2.673-0.362,5.657,0.264,8.312,0.6c3.007,0.382,6.007,0.799,9.034,0.99
			c3.125,0.197,6.257,0.237,9.387,0.288c3.055,0.05,6.112,0.109,9.16,0.335c2.715,0.201,5.547,0.394,8.109,1.385
			c3.865,1.496,6.266,4.734,8.401,8.125c6.532,10.375,12.18,21.243,18.073,31.983C241.669,249.291,248.74,260.479,249.196,272.891z"
			/>
		<path style="fill:#FFE3CB;" d="M119.322,233.979c1.183-2.207,3.348-3.878,5.364-5.253c5.537-3.777,11.927-6.08,17.089-10.435
			c6.415-5.412,11.275-12.733,18.614-17.027c1.762-1.031,3.651-1.85,5.626-2.374c2.622-0.695,5.391-0.942,8.089-1.131
			c6.011-0.422,12.028-0.182,18.046-0.188c3.381-0.004,6.758-0.093,10.127-0.278c-0.333-0.026-0.665-0.05-0.996-0.075
			c-3.048-0.225-6.105-0.285-9.16-0.334c-3.13-0.051-6.262-0.09-9.387-0.288c-3.027-0.191-6.027-0.609-9.034-0.99
			c-2.655-0.337-5.639-0.962-8.312-0.6c-1.956,0.265-3.745,1.249-5.35,2.35c-3.759,2.578-6.85,6.035-10.029,9.265
			c-3.528,3.584-7.483,6.722-11.507,9.732c-2.397,1.793-4.858,3.504-7.415,5.061c-1.864,1.135-3.809,2.117-5.696,3.21
			c-3.47,2.011-6.797,4.736-6.104,9.175C119.296,233.861,119.311,233.919,119.322,233.979z"/>
		<path style="fill:#FFE3CB;" d="M186.87,268.619c0.098-1.337,0.194-2.675,0.343-4.007c0.224-2.012,0.535-4.012,0.783-6.021
			c0.242-1.96,0.421-3.931,0.403-5.907c-0.009-0.996-0.095-1.953-0.301-2.928c-0.173-0.819-0.398-1.626-0.652-2.423
			c-0.487,5.783-1.691,11.48-2.587,17.21c-0.375,2.397-0.718,4.803-0.812,7.23c-0.073,1.882-0.029,3.768,0.111,5.646
			c0.305,4.085,1.062,8.161,2.387,12.041c0.578,1.694,1.275,3.369,2.117,4.965c-0.587-2.046-0.999-4.146-1.307-6.228
			c-0.673-4.546-0.853-9.159-0.758-13.75C186.637,272.503,186.729,270.559,186.87,268.619z"/>
		<path style="fill:#FFE3CB;" d="M249.196,272.891c-0.456-12.412-7.528-23.6-13.332-34.179
			c-5.893-10.74-11.541-21.608-18.073-31.983c-2.135-3.391-4.536-6.63-8.401-8.125c-0.228-0.088-0.46-0.163-0.692-0.239
			c0.947,0.928,1.765,1.978,2.402,3.185c1.084,2.052,1.642,4.326,2.076,6.591c0.505,2.633,0.921,5.281,1.479,7.905
			c0.628,2.953,1.44,5.866,2.392,8.73c1.924,5.792,4.412,11.378,7.077,16.863c2.598,5.347,5.51,10.557,7.974,15.967
			c1.991,4.37,3.488,8.968,4.364,13.692c1.666,8.986,1.018,18.389-2.364,26.913c-1.709,4.306-4.077,8.264-6.943,11.828
			c4.189-1.955,8.032-4.669,11.272-8.012c6.681-6.891,10.275-16.001,10.749-25.407C249.202,275.38,249.242,274.136,249.196,272.891z
			"/>
		<path style="fill:#FFE3CB;" d="M180.333,226.017c2.087,0.521,3.547,1.702,5.072,3.156c1.072,1.022,2.15,2.053,3.242,3.07
			c0.153,0.253,0.307,0.505,0.457,0.76c0.71,1.201,1.391,2.419,2.082,3.631c-0.361-0.296-0.719-0.595-1.074-0.897
			c-1.846-1.573-3.629-3.219-5.395-4.881c-0.106-0.1-0.211-0.198-0.316-0.296c2.324,4.179,1.236,10.143,0.402,14.606
			c-0.315,1.684-0.684,3.356-1.079,5.021c0.293-0.471,0.591-0.939,0.898-1.405c1.76-2.674,3.638-5.275,5.225-8.059
			c0.795-1.394,1.537-2.84,2.086-4.35c0.575-1.581,0.892-3.238,1.236-4.88c0.362-1.73,0.769-3.455,1.449-5.093
			c0.577-1.388,1.372-2.658,2.23-3.888c1.723-2.469,3.737-4.843,4.752-7.717c-0.685-0.309-1.354-0.65-2.013-1.011
			c-3.497-1.916-6.779-4.2-10.311-6.056c-1.707-0.897-3.475-1.715-5.337-2.237c-1.595-0.447-3.314-0.683-4.947-0.294
			c-1.684,0.401-3.06,1.477-4.04,2.883c-0.633,0.908-1.113,1.916-1.495,2.952c-0.353,0.958-1.097,1.821-1.738,2.607
			c-3.085,3.784-7.184,6.721-11.296,9.289c-4.09,2.555-8.39,4.772-12.767,6.79c-2.3,1.06-4.631,1.963-7.061,2.687
			c-2.923,0.871-5.916,1.549-8.945,1.929c-2.632,0.329-5.421,0.497-8.021-0.146c-1.817-0.449-3.582-1.452-4.198-3.297
			c-0.243,0.881-0.309,1.846-0.143,2.91c1.057,6.771,10.369,7.592,15.741,7.49c9.477-0.18,18.134-4.668,26.219-9.223
			c4.177-2.353,8.235-5.08,13.01-6.041C176.245,225.626,178.35,225.521,180.333,226.017z"/>
		<path style="fill:#D09670;" d="M178.654,214.815c-0.742,4.071-3.906,6.897-6.828,9.538c-0.498,0.45-0.061,1.274,0.546,0.803
			c3.385-2.631,6.59-5.909,6.801-10.42C179.189,214.357,178.703,214.546,178.654,214.815z"/>
	</g>
</g>
</svg>
