<svg width="32" height="32" viewBox="0 0 32 32" fill="none" xmlns="http://www.w3.org/2000/svg">
<path d="M16 0C7.168 0 0 7.168 0 16C0 24.832 7.168 32 16 32C24.832 32 32 24.832 32 16C32 7.168 24.832 0 16 0ZM16 28C9.373 28 4 22.627 4 16C4 9.373 9.373 4 16 4C22.627 4 28 9.373 28 16C28 22.627 22.627 28 16 28Z" fill="#FF902A"/>
<path d="M22 11H10C9.448 11 9 11.448 9 12V20C9 20.552 9.448 21 10 21H22C22.552 21 23 20.552 23 20V12C23 11.448 22.552 11 22 11ZM21 19H11V13H21V19Z" fill="#FF902A"/>
<path d="M16 15C15.448 15 15 15.448 15 16C15 16.552 15.448 17 16 17C16.552 17 17 16.552 17 16C17 15.448 16.552 15 16 15Z" fill="#FF902A"/>
</svg>